<svg xmlns="http://www.w3.org/2000/svg" width="396" height="59" viewBox="0 0 396 59" fill="none">
  <path d="M0.450767 2.29985C1.2321 2.00499 2.22378 1.76911 3.42583 1.5922C4.68797 1.41529 6.01022 1.32684 7.39258 1.32684C8.83503 1.26787 10.2174 1.32684 11.5396 1.50375C12.922 1.68066 14.1541 1.94602 15.2359 2.29985C15.3561 3.12543 15.3561 4.21639 15.2359 5.57271C15.1758 6.92903 15.2059 7.9905 15.3261 8.75712C15.867 7.87256 16.4079 6.95852 16.9488 6.01499C17.5499 5.07146 18.241 4.18691 19.0224 3.36132C19.8638 2.53573 20.8254 1.85757 21.9073 1.32684C23.0492 0.7961 24.4316 0.530733 26.0543 0.530733C27.9175 0.530733 29.7506 0.855072 31.5537 1.50375C33.4168 2.15242 35.0697 3.12544 36.5121 4.42279C38.0147 5.66117 39.2167 7.22389 40.1182 9.11094C41.0198 10.939 41.4705 13.062 41.4705 15.4798C41.4705 19.2539 40.3887 22.2614 38.225 24.5022C36.1214 26.7431 33.3868 28.2469 30.0211 29.0135C31.4034 29.0725 32.8459 29.3968 34.3484 29.9865C35.9111 30.5172 37.3535 31.2839 38.6758 32.2864C39.998 33.2889 41.0799 34.5272 41.9213 36.0015C42.8228 37.4758 43.2736 39.1859 43.2736 41.1319C43.2736 44.1984 42.6726 46.7931 41.4705 48.916C40.3286 51.039 38.6758 52.7491 36.5121 54.0465C34.3484 55.3438 31.734 56.2579 28.6688 56.7886C25.6637 57.3783 22.2979 57.6732 18.5716 57.6732C16.7685 57.6732 15.1157 57.6437 13.6132 57.5847C12.1707 57.5847 10.7283 57.5257 9.2858 57.4078C7.90344 57.3488 6.49104 57.2604 5.04859 57.1424C3.60613 57.0245 2.07353 56.9065 0.450767 56.7886C0.330562 55.904 0.240409 54.3413 0.180307 52.1005C0.120204 49.8006 0.0601022 47.088 0 43.9625C0 40.7781 0 37.3283 0 33.6132C0 29.8391 0 26.0945 0 22.3793C0.0601022 18.6052 0.120204 14.9785 0.180307 11.4993C0.240409 8.01999 0.330562 4.95352 0.450767 2.29985ZM20.555 22.8216C22.1176 22.8216 23.3798 22.4973 24.3414 21.8486C25.303 21.1999 25.7839 19.991 25.7839 18.2219C25.7839 17.0425 25.3331 16.2464 24.4316 15.8336C23.5901 15.3618 22.6585 15.1259 21.6368 15.1259C21.0358 15.1259 20.4348 15.2439 19.8337 15.4798C19.2928 15.7156 18.7819 16.0105 18.3011 16.3643C17.8203 16.6592 17.4296 17.013 17.1291 17.4258C16.8286 17.7796 16.6784 18.1334 16.6784 18.4873V22.7331C16.8587 22.7921 17.1592 22.8216 17.5799 22.8216H20.555ZM17.8504 44.4933C18.6317 44.4933 19.5633 44.4933 20.6451 44.4933C21.727 44.4933 22.7487 44.3753 23.7103 44.1394C24.7321 43.9035 25.5735 43.4908 26.2346 42.9011C26.9559 42.3113 27.3165 41.4268 27.3165 40.2474C27.3165 39.3039 27.046 38.5962 26.5051 38.1244C26.0243 37.5937 25.3932 37.2104 24.6119 36.9745C23.8906 36.6797 23.1093 36.5028 22.2679 36.4438C21.4264 36.3848 20.6752 36.3553 20.014 36.3553H17.5799C16.9789 36.3553 16.6784 36.6207 16.6784 37.1514V44.1394C16.6784 44.3163 16.8286 44.4343 17.1291 44.4933C17.4897 44.4933 17.7302 44.4933 17.8504 44.4933Z" fill="#D30520"/>
  <path d="M77.5023 2.56522C78.524 2.21139 79.7561 1.97551 81.1986 1.85757C82.641 1.68066 84.1135 1.5922 85.6161 1.5922C88.4409 1.5922 90.7548 1.91654 92.5579 2.56522C92.6781 3.15492 92.7683 3.74463 92.8284 4.33433C92.8885 4.92404 92.9185 5.54323 92.9185 6.1919V34.4978C92.9185 42.1639 91.0554 47.8546 87.329 51.5697C83.6628 55.2849 77.7127 57.1424 69.4787 57.1424C62.0861 57.1424 56.3463 55.4618 52.2594 52.1005C48.2325 48.6802 46.2191 43.4908 46.2191 36.5322V6.36881C46.2191 5.77911 46.2491 5.15992 46.3092 4.51124C46.3693 3.86257 46.4895 3.21389 46.6699 2.56522C47.5714 2.21139 48.7133 1.94603 50.0957 1.76911C51.478 1.5922 52.9205 1.50375 54.423 1.50375C55.9256 1.50375 57.3681 1.5922 58.7504 1.76911C60.1929 1.94603 61.3949 2.21139 62.3565 2.56522C62.4767 3.15492 62.5368 3.8036 62.5368 4.51124C62.5368 5.15992 62.5368 5.83808 62.5368 6.54573V35.913C62.5368 37.0335 62.7472 38.0065 63.1679 38.8321C63.6487 39.6577 64.2197 40.3653 64.8808 40.955C65.6021 41.5447 66.3834 41.987 67.2248 42.2819C68.1264 42.5767 68.9978 42.7241 69.8393 42.7241C71.1014 42.7241 72.1833 42.3998 73.0848 41.7511C73.9863 41.1024 74.7076 40.2474 75.2485 39.1859C75.8495 38.1244 76.3003 36.945 76.6008 35.6477C76.9013 34.3503 77.0515 33.053 77.0515 31.7556V6.28036C77.0515 5.27786 77.2018 4.03948 77.5023 2.56522Z" fill="#09D305"/>
  <path d="M126.138 56.4348C123.554 57.2604 120.759 57.6142 117.754 57.4963C114.749 57.4373 112.074 57.0835 109.73 56.4348V38.9205C109.73 37.977 109.399 36.5617 108.738 34.6747C108.137 32.7876 107.356 30.6647 106.394 28.3058C105.433 25.947 104.351 23.4703 103.149 20.8756C102.007 18.2219 100.895 15.7156 99.8131 13.3568C98.7313 10.939 97.7396 8.75712 96.8381 6.8111C95.9967 4.8061 95.4257 3.30235 95.1252 2.29985C97.5894 1.82809 100.264 1.56272 103.149 1.50375C106.034 1.44478 108.919 1.71014 111.804 2.29985L117.934 21.5832L124.335 2.29985C125.357 2.00499 126.529 1.7986 127.851 1.68066C129.173 1.56272 130.525 1.53323 131.908 1.5922C133.29 1.5922 134.642 1.65117 135.965 1.76911C137.287 1.88706 138.489 2.06397 139.571 2.29985C139.571 3.06646 139.24 4.33433 138.579 6.10345C137.918 7.87256 137.077 9.93653 136.055 12.2954C135.093 14.6542 134.011 17.1604 132.809 19.8141C131.667 22.4678 130.585 25.0625 129.564 27.5982C128.602 30.075 127.791 32.3748 127.13 34.4978C126.468 36.5617 126.138 38.1834 126.138 39.3628V56.4348Z" fill="#EBF57C"/>
  <path d="M171.249 2.29985C172.03 2.00499 173.022 1.76911 174.224 1.5922C175.486 1.41529 176.809 1.32684 178.191 1.32684C179.633 1.26787 181.016 1.32684 182.338 1.50375C183.72 1.68066 184.952 1.94602 186.034 2.29985C186.154 3.12543 186.154 4.21639 186.034 5.57271C185.974 6.92903 186.004 7.9905 186.124 8.75712C186.665 7.87256 187.206 6.95852 187.747 6.01499C188.348 5.07146 189.039 4.18691 189.821 3.36132C190.662 2.53573 191.624 1.85757 192.706 1.32684C193.848 0.7961 195.23 0.530733 196.853 0.530733C198.716 0.530733 200.549 0.855072 202.352 1.50375C204.215 2.15242 205.868 3.12544 207.31 4.42279C208.813 5.66117 210.015 7.22389 210.917 9.11094C211.818 10.939 212.269 13.062 212.269 15.4798C212.269 19.2539 211.187 22.2614 209.023 24.5022C206.92 26.7431 204.185 28.2469 200.819 29.0135C202.202 29.0725 203.644 29.3968 205.147 29.9865C206.709 30.5172 208.152 31.2839 209.474 32.2864C210.796 33.2889 211.878 34.5272 212.72 36.0015C213.621 37.4758 214.072 39.1859 214.072 41.1319C214.072 44.1984 213.471 46.7931 212.269 48.916C211.127 51.039 209.474 52.7491 207.31 54.0465C205.147 55.3438 202.532 56.2579 199.467 56.7886C196.462 57.3783 193.096 57.6732 189.37 57.6732C187.567 57.6732 185.914 57.6437 184.411 57.5847C182.969 57.5847 181.527 57.5257 180.084 57.4078C178.702 57.3488 177.289 57.2604 175.847 57.1424C174.404 57.0245 172.872 56.9065 171.249 56.7886C171.129 55.904 171.039 54.3413 170.979 52.1005C170.919 49.8006 170.858 47.088 170.798 43.9625C170.798 40.7781 170.798 37.3283 170.798 33.6132C170.798 29.8391 170.798 26.0945 170.798 22.3793C170.858 18.6052 170.919 14.9785 170.979 11.4993C171.039 8.01999 171.129 4.95352 171.249 2.29985ZM191.353 22.8216C192.916 22.8216 194.178 22.4973 195.14 21.8486C196.101 21.1999 196.582 19.991 196.582 18.2219C196.582 17.0425 196.131 16.2464 195.23 15.8336C194.388 15.3618 193.457 15.1259 192.435 15.1259C191.834 15.1259 191.233 15.2439 190.632 15.4798C190.091 15.7156 189.58 16.0105 189.099 16.3643C188.619 16.6592 188.228 17.013 187.927 17.4258C187.627 17.7796 187.477 18.1334 187.477 18.4873V22.7331C187.657 22.7921 187.958 22.8216 188.378 22.8216H191.353ZM188.649 44.4933C189.43 44.4933 190.362 44.4933 191.443 44.4933C192.525 44.4933 193.547 44.3753 194.509 44.1394C195.53 43.9035 196.372 43.4908 197.033 42.9011C197.754 42.3113 198.115 41.4268 198.115 40.2474C198.115 39.3039 197.844 38.5962 197.303 38.1244C196.823 37.5937 196.192 37.2104 195.41 36.9745C194.689 36.6797 193.908 36.5028 193.066 36.4438C192.225 36.3848 191.473 36.3553 190.812 36.3553H188.378C187.777 36.3553 187.477 36.6207 187.477 37.1514V44.1394C187.477 44.3163 187.627 44.4343 187.927 44.4933C188.288 44.4933 188.528 44.4933 188.649 44.4933Z" fill="#D30520"/>
  <path d="M241.659 45.7316C241.839 46.3803 241.959 47.1469 242.019 48.0315C242.14 48.916 242.2 49.8301 242.2 50.7736C242.2 51.7171 242.14 52.6312 242.019 53.5157C241.959 54.3413 241.839 55.0785 241.659 55.7271C241.118 55.963 240.367 56.1694 239.405 56.3463C238.504 56.4643 237.482 56.5822 236.34 56.7002C235.198 56.7591 234.026 56.7886 232.824 56.7886C231.682 56.7886 230.6 56.7886 229.578 56.7886H226.693C224.169 56.7886 221.975 56.7296 220.112 56.6117C218.249 56.4348 216.957 55.963 216.236 55.1964C216.115 54.6657 216.025 54.017 215.965 53.2504C215.965 52.4838 215.965 51.6877 215.965 50.8621C215.965 50.0365 215.995 49.2109 216.055 48.3853C216.115 47.5597 216.176 46.8521 216.236 46.2624C216.656 45.9085 217.348 45.6432 218.309 45.4663C219.271 45.2894 220.262 45.2009 221.284 45.2009L221.104 12.8261H219.752C219.571 12.8261 219.301 12.8261 218.94 12.8261C218.64 12.8261 218.309 12.8261 217.949 12.8261C217.588 12.7671 217.227 12.7376 216.867 12.7376C216.566 12.6787 216.356 12.6197 216.236 12.5607C215.935 11.2044 215.785 9.64168 215.785 7.87256C215.785 6.04448 215.935 4.3933 216.236 2.91904C217.257 2.50624 218.82 2.27036 220.924 2.21139C223.087 2.09345 225.251 2.03448 227.415 2.03448C228.617 2.03448 229.909 2.06397 231.291 2.12294C232.674 2.12294 233.996 2.15242 235.258 2.21139C236.58 2.27036 237.782 2.3883 238.864 2.56522C239.946 2.68316 240.787 2.86007 241.388 3.09595C241.929 6.28036 241.929 9.28786 241.388 12.1184C240.727 12.1184 240.036 12.1774 239.315 12.2954C238.594 12.3543 237.902 12.3248 237.241 12.2069V45.4663C237.422 45.4663 237.722 45.4663 238.143 45.4663C238.564 45.4663 239.014 45.4958 239.495 45.5547C239.976 45.5547 240.427 45.5842 240.848 45.6432C241.268 45.6432 241.539 45.6727 241.659 45.7316Z" fill="#EBF57C"/>
  <path d="M292.25 56.7886C291.409 57.0245 290.297 57.2014 288.915 57.3193C287.532 57.4963 286.06 57.5847 284.497 57.5847C282.995 57.6437 281.492 57.6142 279.99 57.4963C278.487 57.3783 277.195 57.1424 276.113 56.7886C274.43 54.6067 272.897 52.2774 271.515 49.8006C270.193 47.3238 268.901 44.7881 267.639 42.1934C266.436 39.5987 265.264 37.004 264.123 34.4093C262.981 31.8146 261.718 29.3378 260.336 26.979C260.396 28.2764 260.456 29.6032 260.516 30.9595C260.637 32.2569 260.697 33.5542 260.697 34.8516C260.697 36.2079 260.697 37.8886 260.697 39.8936C260.757 41.8986 260.757 43.933 260.697 45.997C260.697 48.061 260.637 50.066 260.516 52.012C260.396 53.958 260.186 55.5502 259.885 56.7886C259.284 56.9655 258.383 57.1129 257.181 57.2309C255.979 57.4078 254.687 57.5257 253.304 57.5847C251.982 57.6437 250.63 57.6142 249.247 57.4963C247.925 57.3783 246.783 57.1424 245.821 56.7886C245.641 55.963 245.521 55.1079 245.461 54.2234C245.401 53.3388 245.371 52.4838 245.371 51.6582V5.57271C245.371 5.04198 245.401 4.51125 245.461 3.98051C245.581 3.3908 245.761 2.86007 246.002 2.38831C246.903 2.15242 248.015 2.005 249.337 1.94603C250.72 1.82809 252.132 1.76911 253.575 1.76911C255.017 1.76911 256.429 1.82809 257.812 1.94603C259.254 2.06397 260.516 2.21139 261.598 2.38831C262.019 2.91904 262.62 3.98051 263.401 5.57271C264.243 7.10595 265.174 8.87506 266.196 10.8801C267.278 12.8851 268.39 15.008 269.532 17.2489C270.674 19.4308 271.725 21.4358 272.687 23.2639C273.709 25.092 274.58 26.6252 275.302 27.8636C276.023 29.043 276.474 29.6622 276.654 29.7211V7.51874C276.654 6.69315 276.684 5.83808 276.744 4.95352C276.804 4.06897 276.984 3.21389 277.285 2.38831C278.186 2.09345 279.328 1.88706 280.711 1.76911C282.093 1.65117 283.506 1.62169 284.948 1.68066C286.39 1.68066 287.773 1.73963 289.095 1.85757C290.417 1.97551 291.469 2.15242 292.25 2.38831C292.491 3.27286 292.611 4.30485 292.611 5.48426V50.8621C292.611 51.8646 292.581 52.8671 292.521 53.8696C292.521 54.8131 292.431 55.7861 292.25 56.7886Z" fill="#2FB7E2"/>
  <path d="M321.497 34.4093C320.956 32.5222 320.625 30.4288 320.505 28.1289C320.445 25.8291 320.775 23.7651 321.497 21.937H332.856C334.9 21.937 336.612 22.2909 337.995 22.9985C339.437 23.6472 340.609 24.5317 341.511 25.6522C342.412 26.7136 343.043 27.8931 343.404 29.1904C343.825 30.4878 344.035 31.7556 344.035 32.994C344.035 36.3553 343.644 39.6282 342.863 42.8126C342.082 45.938 340.82 48.7096 339.077 51.1274C337.334 53.4863 335.02 55.3733 332.135 56.7886C329.25 58.2629 325.704 59 321.497 59C317.049 59 313.203 58.2039 309.957 56.6117C306.772 54.9605 304.127 52.7786 302.024 50.066C299.98 47.3533 298.447 44.1984 297.426 40.6012C296.464 37.004 295.983 33.2299 295.983 29.2789C295.983 24.7381 296.554 20.6692 297.696 17.072C298.838 13.4158 300.521 10.3493 302.745 7.87256C305.029 5.33683 307.884 3.39081 311.309 2.03448C314.735 0.678161 318.702 0 323.21 0C324.953 0 326.635 0.0884546 328.258 0.265364C329.941 0.383307 331.444 0.530735 332.766 0.707648C334.088 0.884557 335.2 1.06147 336.102 1.23838C337.003 1.35632 337.544 1.41529 337.724 1.41529C338.145 3.47926 338.325 5.63168 338.265 7.87256C338.205 10.1134 337.995 12.2069 337.634 14.1529C337.394 14.035 336.763 13.917 335.741 13.7991C334.719 13.6222 333.547 13.4453 332.225 13.2684C330.903 13.0915 329.55 12.944 328.168 12.8261C326.786 12.7081 325.584 12.6492 324.562 12.6492C322.518 12.6492 320.745 13.0915 319.243 13.976C317.8 14.8016 316.568 15.9515 315.547 17.4258C314.585 18.9001 313.864 20.6397 313.383 22.6447C312.902 24.6497 312.662 26.8021 312.662 29.1019C312.662 30.6942 312.812 32.3748 313.112 34.1439C313.473 35.8541 314.014 37.4463 314.735 38.9205C315.517 40.3948 316.538 41.6037 317.8 42.5472C319.063 43.4908 320.625 43.9625 322.488 43.9625C325.193 43.9625 326.996 43.3138 327.898 42.0165C328.799 40.7191 329.25 38.9205 329.25 36.6207C329.25 35.6182 328.919 34.999 328.258 34.7631C327.597 34.5272 326.756 34.4093 325.734 34.4093H321.497Z" fill="#09D305"/>
  <path d="M371.388 59C367.001 59 363.214 58.2924 360.029 56.8771C356.904 55.5207 354.319 53.6042 352.276 51.1274C350.292 48.5917 348.82 45.5842 347.858 42.1049C346.957 38.5667 346.506 34.7041 346.506 30.5172C346.506 25.9175 346.927 21.7601 347.768 18.045C348.609 14.3298 349.992 11.1749 351.915 8.58021C353.898 5.92654 356.483 3.89205 359.668 2.47676C362.854 1.0025 366.79 0.265364 371.478 0.265364C376.046 0.265364 379.893 1.06147 383.018 2.65367C386.143 4.24587 388.668 6.42778 390.591 9.1994C392.514 11.912 393.896 15.1554 394.738 18.9295C395.579 22.6447 396 26.6252 396 30.8711C396 34.5862 395.489 38.1539 394.467 41.5742C393.446 44.9355 391.883 47.9135 389.779 50.5082C387.736 53.103 385.182 55.1669 382.116 56.7002C379.051 58.2334 375.475 59 371.388 59ZM371.388 44.2279C373.251 44.2279 374.724 43.7561 375.806 42.8126C376.948 41.8691 377.819 40.6897 378.42 39.2744C379.021 37.8591 379.412 36.3553 379.592 34.7631C379.772 33.1119 379.863 31.6082 379.863 30.2519C379.863 28.8366 379.802 27.3033 379.682 25.6522C379.562 23.942 379.201 22.3793 378.6 20.964C378.059 19.4898 377.218 18.2514 376.076 17.2489C374.994 16.2464 373.462 15.7451 371.478 15.7451C369.675 15.7451 368.173 16.2759 366.971 17.3373C365.829 18.3398 364.927 19.6077 364.266 21.1409C363.605 22.6742 363.124 24.2959 362.824 26.006C362.583 27.6572 362.463 29.1609 362.463 30.5172C362.463 31.9325 362.583 33.4363 362.824 35.0285C363.064 36.6207 363.485 38.095 364.086 39.4513C364.747 40.8076 365.648 41.9575 366.79 42.9011C367.992 43.7856 369.525 44.2279 371.388 44.2279Z" fill="#8505D3"/>
</svg>