<svg xmlns="http://www.w3.org/2000/svg" width="669" height="185" viewBox="0 0 669 185" fill="none">
  <g filter="url(#filter0_d_199_19)">
    <mask id="path-1-outside-1_199_19" maskUnits="userSpaceOnUse" x="4" y="0" width="661" height="177" fill="black">
      <rect fill="white" x="4" width="661" height="177"/>
      <path d="M6.31906 7.82158C8.60544 6.94702 11.5074 6.24737 15.0249 5.72264C18.7183 5.1979 22.5875 4.93553 26.6326 4.93553C30.8536 4.76062 34.8988 4.93553 38.768 5.46027C42.8132 5.98501 46.4186 6.77211 49.5844 7.82158C49.9361 10.2704 49.9361 13.5062 49.5844 17.5292C49.4085 21.5522 49.4964 24.7006 49.8482 26.9745C51.431 24.3508 53.0139 21.6397 54.5968 18.8411C56.3555 16.0425 58.3781 13.4188 60.6645 10.97C63.1267 8.52124 65.9407 6.50974 69.1065 4.93553C72.4481 3.36131 76.4933 2.57421 81.2419 2.57421C86.694 2.57421 92.0582 3.53623 97.3344 5.46027C102.787 7.38431 107.623 10.2704 111.844 14.1184C116.241 17.7916 119.759 22.4268 122.397 28.024C125.035 33.4463 126.354 39.7431 126.354 46.9145C126.354 58.1089 123.188 67.0295 116.857 73.6762C110.701 80.3228 102.699 84.7831 92.8496 87.057C96.8948 87.2319 101.116 88.1939 105.513 89.943C110.085 91.5172 114.306 93.7911 118.176 96.7646C122.045 99.7381 125.211 103.411 127.673 107.784C130.311 112.157 131.63 117.229 131.63 123.001C131.63 132.097 129.871 139.793 126.354 146.09C123.012 152.387 118.176 157.459 111.844 161.307C105.513 165.155 97.8621 167.867 88.8924 169.441C80.0987 171.19 70.2497 172.064 59.3454 172.064C54.0692 172.064 49.2326 171.977 44.8357 171.802C40.6147 171.802 36.3937 171.627 32.1727 171.277C28.1276 171.102 23.9945 170.84 19.7735 170.49C15.5525 170.14 11.0677 169.791 6.31906 169.441C5.96731 166.817 5.7035 162.182 5.52763 155.535C5.35175 148.714 5.17588 140.668 5 131.397C5 121.952 5 111.72 5 100.7C5 89.5057 5 78.3988 5 67.3793C5.17588 56.1849 5.35175 45.4278 5.52763 35.1079C5.7035 24.7881 5.96731 15.6926 6.31906 7.82158ZM65.1493 68.6911C69.7221 68.6911 73.4154 67.7291 76.2294 65.8051C79.0434 63.8811 80.4504 60.2953 80.4504 55.048C80.4504 51.5497 79.1314 49.1884 76.4933 47.964C74.031 46.5647 71.3049 45.8651 68.315 45.8651C66.5563 45.8651 64.7975 46.2149 63.0388 46.9145C61.4559 47.6142 59.961 48.4888 58.554 49.5382C57.147 50.4128 56.0038 51.4623 55.1244 52.6866C54.245 53.7361 53.8054 54.7856 53.8054 55.8351V68.4288C54.333 68.6037 55.2124 68.6911 56.4435 68.6911H65.1493ZM57.2349 132.971C59.5213 132.971 62.2474 132.971 65.4131 132.971C68.5789 132.971 71.5687 132.622 74.3827 131.922C77.3726 131.222 79.8349 129.998 81.7695 128.249C83.88 126.5 84.9353 123.876 84.9353 120.378C84.9353 117.579 84.1438 115.48 82.5609 114.081C81.1539 112.507 79.3073 111.37 77.0209 110.67C74.9104 109.796 72.624 109.271 70.1617 109.096C67.6995 108.921 65.501 108.834 63.5664 108.834H56.4435C54.6847 108.834 53.8054 109.621 53.8054 111.195V131.922C53.8054 132.447 54.245 132.797 55.1244 132.971C56.1797 132.971 56.8832 132.971 57.2349 132.971Z"/>
      <path d="M212.357 136.645C212.884 138.569 213.236 140.843 213.412 143.466C213.764 146.09 213.94 148.801 213.94 151.6C213.94 154.398 213.764 157.109 213.412 159.733C213.236 162.182 212.884 164.368 212.357 166.292C210.774 166.992 208.575 167.604 205.761 168.129C203.123 168.479 200.133 168.829 196.792 169.178C193.45 169.353 190.021 169.441 186.503 169.441C183.162 169.441 179.996 169.441 177.006 169.441H168.564C161.177 169.441 154.758 169.266 149.306 168.916C143.853 168.391 140.072 166.992 137.962 164.718C137.61 163.144 137.346 161.22 137.17 158.946C137.17 156.672 137.17 154.311 137.17 151.862C137.17 149.413 137.258 146.965 137.434 144.516C137.61 142.067 137.786 139.968 137.962 138.219C139.193 137.169 141.215 136.382 144.029 135.858C146.843 135.333 149.745 135.07 152.735 135.07L152.207 39.0435H148.25C147.723 39.0435 146.931 39.0435 145.876 39.0435C144.997 39.0435 144.029 39.0435 142.974 39.0435C141.919 38.8686 140.864 38.7811 139.808 38.7811C138.929 38.6062 138.313 38.4313 137.962 38.2564C137.082 34.2334 136.643 29.5982 136.643 24.3508C136.643 18.9285 137.082 14.031 137.962 9.65817C140.951 8.43378 145.524 7.73412 151.68 7.55921C158.011 7.20939 164.343 7.03448 170.674 7.03448C174.192 7.03448 177.973 7.12194 182.018 7.29685C186.063 7.29685 189.933 7.3843 193.626 7.55921C197.495 7.73412 201.013 8.08395 204.179 8.60869C207.344 8.95852 209.807 9.48326 211.565 10.1829C213.148 19.6282 213.148 28.5487 211.565 36.9445C209.631 36.9445 207.608 37.1194 205.498 37.4693C203.387 37.6442 201.365 37.5567 199.43 37.2069V135.858C199.958 135.858 200.837 135.858 202.068 135.858C203.299 135.858 204.618 135.945 206.025 136.12C207.432 136.12 208.751 136.207 209.982 136.382C211.214 136.382 212.005 136.47 212.357 136.645Z"/>
      <path d="M360.401 169.441C357.939 170.14 354.685 170.665 350.64 171.015C346.595 171.54 342.286 171.802 337.713 171.802C333.316 171.977 328.919 171.89 324.523 171.54C320.126 171.19 316.344 170.49 313.179 169.441C308.254 162.969 303.769 156.06 299.724 148.714C295.855 141.367 292.074 133.846 288.38 126.15C284.863 118.454 281.433 110.758 278.091 103.061C274.75 95.3653 271.056 88.019 267.011 81.0225C267.187 84.8706 267.363 88.8061 267.539 92.8291C267.891 96.6772 268.067 100.525 268.067 104.373C268.067 108.396 268.067 113.381 268.067 119.328C268.242 125.275 268.242 131.31 268.067 137.432C268.067 143.554 267.891 149.501 267.539 155.273C267.187 161.045 266.572 165.768 265.692 169.441C263.934 169.965 261.295 170.403 257.778 170.753C254.26 171.277 250.479 171.627 246.434 171.802C242.565 171.977 238.608 171.89 234.562 171.54C230.693 171.19 227.352 170.49 224.538 169.441C224.01 166.992 223.658 164.456 223.482 161.832C223.306 159.208 223.218 156.672 223.218 154.223V17.5292C223.218 15.955 223.306 14.3808 223.482 12.8066C223.834 11.0575 224.362 9.48325 225.065 8.08396C227.703 7.38431 230.957 6.94703 234.826 6.77212C238.871 6.42229 243.004 6.24737 247.225 6.24737C251.446 6.24737 255.579 6.42229 259.625 6.77212C263.846 7.12194 267.539 7.55922 270.705 8.08396C271.936 9.65817 273.695 12.8066 275.981 17.5292C278.443 22.077 281.169 27.3243 284.159 33.2714C287.325 39.2184 290.579 45.5152 293.92 52.1619C297.262 58.6337 300.34 64.5807 303.154 70.003C306.144 75.4253 308.694 79.973 310.804 83.6462C312.915 87.1444 314.234 88.981 314.761 89.1559V23.3013C314.761 20.8526 314.849 18.3163 315.025 15.6927C315.201 13.069 315.729 10.5327 316.608 8.08396C319.246 7.2094 322.588 6.5972 326.633 6.24737C330.678 5.89755 334.811 5.8101 339.032 5.98501C343.253 5.98501 347.298 6.15992 351.168 6.50974C355.037 6.85957 358.115 7.38431 360.401 8.08396C361.105 10.7076 361.456 13.7686 361.456 17.2669V151.862C361.456 154.836 361.368 157.809 361.193 160.783C361.193 163.581 360.929 166.467 360.401 169.441Z"/>
      <path d="M445.984 103.061C444.401 97.4643 443.433 91.2549 443.082 84.4333C442.906 77.6117 443.873 71.4898 445.984 66.0675H479.224C485.204 66.0675 490.216 67.1169 494.261 69.2159C498.482 71.1399 501.912 73.7636 504.55 77.0869C507.188 80.2354 509.035 83.7336 510.09 87.5817C511.321 91.4298 511.937 95.1904 511.937 98.8636C511.937 108.834 510.794 118.541 508.507 127.986C506.221 137.257 502.527 145.478 497.427 152.649C492.327 159.646 485.555 165.243 477.113 169.441C468.671 173.814 458.295 176 445.984 176C432.969 176 421.713 173.639 412.216 168.916C402.894 164.018 395.156 157.547 389 149.501C383.02 141.455 378.535 132.097 375.546 121.427C372.732 110.758 371.325 99.5632 371.325 87.8441C371.325 74.3758 372.995 62.3068 376.337 51.6372C379.679 40.7926 384.603 31.6971 391.111 24.3508C397.794 16.8296 406.148 11.0575 416.173 7.03448C426.198 3.01149 437.805 1 450.996 1C456.096 1 461.021 1.26237 465.77 1.7871C470.694 2.13693 475.091 2.57421 478.96 3.09895C482.829 3.62369 486.083 4.14842 488.721 4.67316C491.359 5.02298 492.942 5.19789 493.47 5.19789C494.701 11.3198 495.229 17.7041 495.053 24.3508C494.877 30.9975 494.261 37.2069 493.206 42.979C492.503 42.6292 490.656 42.2794 487.666 41.9295C484.676 41.4048 481.247 40.8801 477.377 40.3553C473.508 39.8306 469.551 39.3933 465.506 39.0435C461.461 38.6937 457.943 38.5187 454.953 38.5187C448.973 38.5187 443.785 39.8306 439.388 42.4543C435.167 44.903 431.562 48.3138 428.572 52.6866C425.758 57.0595 423.647 62.2194 422.24 68.1664C420.833 74.1134 420.13 80.4977 420.13 87.3193C420.13 92.042 420.57 97.027 421.449 102.274C422.504 107.347 424.087 112.069 426.198 116.442C428.484 120.815 431.474 124.401 435.167 127.199C438.861 129.998 443.433 131.397 448.885 131.397C456.8 131.397 462.076 129.473 464.714 125.625C467.352 121.777 468.671 116.442 468.671 109.621C468.671 106.647 467.704 104.811 465.77 104.111C463.835 103.411 461.373 103.061 458.383 103.061H445.984Z"/>
      <path d="M591.979 176C579.14 176 568.06 173.901 558.739 169.703C549.593 165.68 542.031 159.995 536.051 152.649C530.247 145.128 525.938 136.207 523.124 125.888C520.486 115.393 519.167 103.936 519.167 91.5172C519.167 77.8741 520.398 65.5427 522.86 54.5232C525.322 43.5037 529.368 34.1459 534.996 26.4498C540.799 18.5787 548.362 12.5442 557.684 8.34633C567.005 3.97351 578.525 1.7871 592.243 1.7871C605.609 1.7871 616.865 4.14842 626.011 8.87106C635.156 13.5937 642.543 20.0655 648.171 28.2863C653.799 36.3323 657.844 45.9525 660.307 57.1469C662.769 68.1664 664 79.973 664 92.5667C664 103.586 662.505 114.168 659.515 124.313C656.525 134.283 651.953 143.116 645.797 150.813C639.817 158.509 632.343 164.631 623.373 169.178C614.403 173.726 603.939 176 591.979 176ZM591.979 132.184C597.431 132.184 601.74 130.785 604.906 127.986C608.248 125.188 610.798 121.69 612.557 117.492C614.315 113.294 615.458 108.834 615.986 104.111C616.514 99.2134 616.778 94.7531 616.778 90.7301C616.778 86.5322 616.602 81.9845 616.25 77.0869C615.898 72.0145 614.843 67.3793 613.084 63.1814C611.501 58.8086 609.039 55.1354 605.697 52.1619C602.532 49.1884 598.047 47.7016 592.243 47.7016C586.967 47.7016 582.57 49.2759 579.052 52.4243C575.711 55.3978 573.073 59.1584 571.138 63.7061C569.203 68.2539 567.796 73.064 566.917 78.1364C566.213 83.034 565.862 87.4942 565.862 91.5172C565.862 95.7151 566.213 100.175 566.917 104.898C567.62 109.621 568.852 113.993 570.61 118.016C572.545 122.039 575.183 125.45 578.525 128.249C582.042 130.873 586.527 132.184 591.979 132.184Z"/>
    </mask>
    <path d="M6.31906 7.82158C8.60544 6.94702 11.5074 6.24737 15.0249 5.72264C18.7183 5.1979 22.5875 4.93553 26.6326 4.93553C30.8536 4.76062 34.8988 4.93553 38.768 5.46027C42.8132 5.98501 46.4186 6.77211 49.5844 7.82158C49.9361 10.2704 49.9361 13.5062 49.5844 17.5292C49.4085 21.5522 49.4964 24.7006 49.8482 26.9745C51.431 24.3508 53.0139 21.6397 54.5968 18.8411C56.3555 16.0425 58.3781 13.4188 60.6645 10.97C63.1267 8.52124 65.9407 6.50974 69.1065 4.93553C72.4481 3.36131 76.4933 2.57421 81.2419 2.57421C86.694 2.57421 92.0582 3.53623 97.3344 5.46027C102.787 7.38431 107.623 10.2704 111.844 14.1184C116.241 17.7916 119.759 22.4268 122.397 28.024C125.035 33.4463 126.354 39.7431 126.354 46.9145C126.354 58.1089 123.188 67.0295 116.857 73.6762C110.701 80.3228 102.699 84.7831 92.8496 87.057C96.8948 87.2319 101.116 88.1939 105.513 89.943C110.085 91.5172 114.306 93.7911 118.176 96.7646C122.045 99.7381 125.211 103.411 127.673 107.784C130.311 112.157 131.63 117.229 131.63 123.001C131.63 132.097 129.871 139.793 126.354 146.09C123.012 152.387 118.176 157.459 111.844 161.307C105.513 165.155 97.8621 167.867 88.8924 169.441C80.0987 171.19 70.2497 172.064 59.3454 172.064C54.0692 172.064 49.2326 171.977 44.8357 171.802C40.6147 171.802 36.3937 171.627 32.1727 171.277C28.1276 171.102 23.9945 170.84 19.7735 170.49C15.5525 170.14 11.0677 169.791 6.31906 169.441C5.96731 166.817 5.7035 162.182 5.52763 155.535C5.35175 148.714 5.17588 140.668 5 131.397C5 121.952 5 111.72 5 100.7C5 89.5057 5 78.3988 5 67.3793C5.17588 56.1849 5.35175 45.4278 5.52763 35.1079C5.7035 24.7881 5.96731 15.6926 6.31906 7.82158ZM65.1493 68.6911C69.7221 68.6911 73.4154 67.7291 76.2294 65.8051C79.0434 63.8811 80.4504 60.2953 80.4504 55.048C80.4504 51.5497 79.1314 49.1884 76.4933 47.964C74.031 46.5647 71.3049 45.8651 68.315 45.8651C66.5563 45.8651 64.7975 46.2149 63.0388 46.9145C61.4559 47.6142 59.961 48.4888 58.554 49.5382C57.147 50.4128 56.0038 51.4623 55.1244 52.6866C54.245 53.7361 53.8054 54.7856 53.8054 55.8351V68.4288C54.333 68.6037 55.2124 68.6911 56.4435 68.6911H65.1493ZM57.2349 132.971C59.5213 132.971 62.2474 132.971 65.4131 132.971C68.5789 132.971 71.5687 132.622 74.3827 131.922C77.3726 131.222 79.8349 129.998 81.7695 128.249C83.88 126.5 84.9353 123.876 84.9353 120.378C84.9353 117.579 84.1438 115.48 82.5609 114.081C81.1539 112.507 79.3073 111.37 77.0209 110.67C74.9104 109.796 72.624 109.271 70.1617 109.096C67.6995 108.921 65.501 108.834 63.5664 108.834H56.4435C54.6847 108.834 53.8054 109.621 53.8054 111.195V131.922C53.8054 132.447 54.245 132.797 55.1244 132.971C56.1797 132.971 56.8832 132.971 57.2349 132.971Z" fill="#D30520" shape-rendering="crispEdges"/>
    <path d="M212.357 136.645C212.884 138.569 213.236 140.843 213.412 143.466C213.764 146.09 213.94 148.801 213.94 151.6C213.94 154.398 213.764 157.109 213.412 159.733C213.236 162.182 212.884 164.368 212.357 166.292C210.774 166.992 208.575 167.604 205.761 168.129C203.123 168.479 200.133 168.829 196.792 169.178C193.45 169.353 190.021 169.441 186.503 169.441C183.162 169.441 179.996 169.441 177.006 169.441H168.564C161.177 169.441 154.758 169.266 149.306 168.916C143.853 168.391 140.072 166.992 137.962 164.718C137.61 163.144 137.346 161.22 137.17 158.946C137.17 156.672 137.17 154.311 137.17 151.862C137.17 149.413 137.258 146.965 137.434 144.516C137.61 142.067 137.786 139.968 137.962 138.219C139.193 137.169 141.215 136.382 144.029 135.858C146.843 135.333 149.745 135.07 152.735 135.07L152.207 39.0435H148.25C147.723 39.0435 146.931 39.0435 145.876 39.0435C144.997 39.0435 144.029 39.0435 142.974 39.0435C141.919 38.8686 140.864 38.7811 139.808 38.7811C138.929 38.6062 138.313 38.4313 137.962 38.2564C137.082 34.2334 136.643 29.5982 136.643 24.3508C136.643 18.9285 137.082 14.031 137.962 9.65817C140.951 8.43378 145.524 7.73412 151.68 7.55921C158.011 7.20939 164.343 7.03448 170.674 7.03448C174.192 7.03448 177.973 7.12194 182.018 7.29685C186.063 7.29685 189.933 7.3843 193.626 7.55921C197.495 7.73412 201.013 8.08395 204.179 8.60869C207.344 8.95852 209.807 9.48326 211.565 10.1829C213.148 19.6282 213.148 28.5487 211.565 36.9445C209.631 36.9445 207.608 37.1194 205.498 37.4693C203.387 37.6442 201.365 37.5567 199.43 37.2069V135.858C199.958 135.858 200.837 135.858 202.068 135.858C203.299 135.858 204.618 135.945 206.025 136.12C207.432 136.12 208.751 136.207 209.982 136.382C211.214 136.382 212.005 136.47 212.357 136.645Z" fill="#EBF57C" shape-rendering="crispEdges"/>
    <path d="M360.401 169.441C357.939 170.14 354.685 170.665 350.64 171.015C346.595 171.54 342.286 171.802 337.713 171.802C333.316 171.977 328.919 171.89 324.523 171.54C320.126 171.19 316.344 170.49 313.179 169.441C308.254 162.969 303.769 156.06 299.724 148.714C295.855 141.367 292.074 133.846 288.38 126.15C284.863 118.454 281.433 110.758 278.091 103.061C274.75 95.3653 271.056 88.019 267.011 81.0225C267.187 84.8706 267.363 88.8061 267.539 92.8291C267.891 96.6772 268.067 100.525 268.067 104.373C268.067 108.396 268.067 113.381 268.067 119.328C268.242 125.275 268.242 131.31 268.067 137.432C268.067 143.554 267.891 149.501 267.539 155.273C267.187 161.045 266.572 165.768 265.692 169.441C263.934 169.965 261.295 170.403 257.778 170.753C254.26 171.277 250.479 171.627 246.434 171.802C242.565 171.977 238.608 171.89 234.562 171.54C230.693 171.19 227.352 170.49 224.538 169.441C224.01 166.992 223.658 164.456 223.482 161.832C223.306 159.208 223.218 156.672 223.218 154.223V17.5292C223.218 15.955 223.306 14.3808 223.482 12.8066C223.834 11.0575 224.362 9.48325 225.065 8.08396C227.703 7.38431 230.957 6.94703 234.826 6.77212C238.871 6.42229 243.004 6.24737 247.225 6.24737C251.446 6.24737 255.579 6.42229 259.625 6.77212C263.846 7.12194 267.539 7.55922 270.705 8.08396C271.936 9.65817 273.695 12.8066 275.981 17.5292C278.443 22.077 281.169 27.3243 284.159 33.2714C287.325 39.2184 290.579 45.5152 293.92 52.1619C297.262 58.6337 300.34 64.5807 303.154 70.003C306.144 75.4253 308.694 79.973 310.804 83.6462C312.915 87.1444 314.234 88.981 314.761 89.1559V23.3013C314.761 20.8526 314.849 18.3163 315.025 15.6927C315.201 13.069 315.729 10.5327 316.608 8.08396C319.246 7.2094 322.588 6.5972 326.633 6.24737C330.678 5.89755 334.811 5.8101 339.032 5.98501C343.253 5.98501 347.298 6.15992 351.168 6.50974C355.037 6.85957 358.115 7.38431 360.401 8.08396C361.105 10.7076 361.456 13.7686 361.456 17.2669V151.862C361.456 154.836 361.368 157.809 361.193 160.783C361.193 163.581 360.929 166.467 360.401 169.441Z" fill="#2FB7E2" shape-rendering="crispEdges"/>
    <path d="M445.984 103.061C444.401 97.4643 443.433 91.2549 443.082 84.4333C442.906 77.6117 443.873 71.4898 445.984 66.0675H479.224C485.204 66.0675 490.216 67.1169 494.261 69.2159C498.482 71.1399 501.912 73.7636 504.55 77.0869C507.188 80.2354 509.035 83.7336 510.09 87.5817C511.321 91.4298 511.937 95.1904 511.937 98.8636C511.937 108.834 510.794 118.541 508.507 127.986C506.221 137.257 502.527 145.478 497.427 152.649C492.327 159.646 485.555 165.243 477.113 169.441C468.671 173.814 458.295 176 445.984 176C432.969 176 421.713 173.639 412.216 168.916C402.894 164.018 395.156 157.547 389 149.501C383.02 141.455 378.535 132.097 375.546 121.427C372.732 110.758 371.325 99.5632 371.325 87.8441C371.325 74.3758 372.995 62.3068 376.337 51.6372C379.679 40.7926 384.603 31.6971 391.111 24.3508C397.794 16.8296 406.148 11.0575 416.173 7.03448C426.198 3.01149 437.805 1 450.996 1C456.096 1 461.021 1.26237 465.77 1.7871C470.694 2.13693 475.091 2.57421 478.96 3.09895C482.829 3.62369 486.083 4.14842 488.721 4.67316C491.359 5.02298 492.942 5.19789 493.47 5.19789C494.701 11.3198 495.229 17.7041 495.053 24.3508C494.877 30.9975 494.261 37.2069 493.206 42.979C492.503 42.6292 490.656 42.2794 487.666 41.9295C484.676 41.4048 481.247 40.8801 477.377 40.3553C473.508 39.8306 469.551 39.3933 465.506 39.0435C461.461 38.6937 457.943 38.5187 454.953 38.5187C448.973 38.5187 443.785 39.8306 439.388 42.4543C435.167 44.903 431.562 48.3138 428.572 52.6866C425.758 57.0595 423.647 62.2194 422.24 68.1664C420.833 74.1134 420.13 80.4977 420.13 87.3193C420.13 92.042 420.57 97.027 421.449 102.274C422.504 107.347 424.087 112.069 426.198 116.442C428.484 120.815 431.474 124.401 435.167 127.199C438.861 129.998 443.433 131.397 448.885 131.397C456.8 131.397 462.076 129.473 464.714 125.625C467.352 121.777 468.671 116.442 468.671 109.621C468.671 106.647 467.704 104.811 465.77 104.111C463.835 103.411 461.373 103.061 458.383 103.061H445.984Z" fill="#09D305" shape-rendering="crispEdges"/>
    <path d="M591.979 176C579.14 176 568.06 173.901 558.739 169.703C549.593 165.68 542.031 159.995 536.051 152.649C530.247 145.128 525.938 136.207 523.124 125.888C520.486 115.393 519.167 103.936 519.167 91.5172C519.167 77.8741 520.398 65.5427 522.86 54.5232C525.322 43.5037 529.368 34.1459 534.996 26.4498C540.799 18.5787 548.362 12.5442 557.684 8.34633C567.005 3.97351 578.525 1.7871 592.243 1.7871C605.609 1.7871 616.865 4.14842 626.011 8.87106C635.156 13.5937 642.543 20.0655 648.171 28.2863C653.799 36.3323 657.844 45.9525 660.307 57.1469C662.769 68.1664 664 79.973 664 92.5667C664 103.586 662.505 114.168 659.515 124.313C656.525 134.283 651.953 143.116 645.797 150.813C639.817 158.509 632.343 164.631 623.373 169.178C614.403 173.726 603.939 176 591.979 176ZM591.979 132.184C597.431 132.184 601.74 130.785 604.906 127.986C608.248 125.188 610.798 121.69 612.557 117.492C614.315 113.294 615.458 108.834 615.986 104.111C616.514 99.2134 616.778 94.7531 616.778 90.7301C616.778 86.5322 616.602 81.9845 616.25 77.0869C615.898 72.0145 614.843 67.3793 613.084 63.1814C611.501 58.8086 609.039 55.1354 605.697 52.1619C602.532 49.1884 598.047 47.7016 592.243 47.7016C586.967 47.7016 582.57 49.2759 579.052 52.4243C575.711 55.3978 573.073 59.1584 571.138 63.7061C569.203 68.2539 567.796 73.064 566.917 78.1364C566.213 83.034 565.862 87.4942 565.862 91.5172C565.862 95.7151 566.213 100.175 566.917 104.898C567.62 109.621 568.852 113.993 570.61 118.016C572.545 122.039 575.183 125.45 578.525 128.249C582.042 130.873 586.527 132.184 591.979 132.184Z" fill="#8505D3" shape-rendering="crispEdges"/>
    <path d="M6.31906 7.82158C8.60544 6.94702 11.5074 6.24737 15.0249 5.72264C18.7183 5.1979 22.5875 4.93553 26.6326 4.93553C30.8536 4.76062 34.8988 4.93553 38.768 5.46027C42.8132 5.98501 46.4186 6.77211 49.5844 7.82158C49.9361 10.2704 49.9361 13.5062 49.5844 17.5292C49.4085 21.5522 49.4964 24.7006 49.8482 26.9745C51.431 24.3508 53.0139 21.6397 54.5968 18.8411C56.3555 16.0425 58.3781 13.4188 60.6645 10.97C63.1267 8.52124 65.9407 6.50974 69.1065 4.93553C72.4481 3.36131 76.4933 2.57421 81.2419 2.57421C86.694 2.57421 92.0582 3.53623 97.3344 5.46027C102.787 7.38431 107.623 10.2704 111.844 14.1184C116.241 17.7916 119.759 22.4268 122.397 28.024C125.035 33.4463 126.354 39.7431 126.354 46.9145C126.354 58.1089 123.188 67.0295 116.857 73.6762C110.701 80.3228 102.699 84.7831 92.8496 87.057C96.8948 87.2319 101.116 88.1939 105.513 89.943C110.085 91.5172 114.306 93.7911 118.176 96.7646C122.045 99.7381 125.211 103.411 127.673 107.784C130.311 112.157 131.63 117.229 131.63 123.001C131.63 132.097 129.871 139.793 126.354 146.09C123.012 152.387 118.176 157.459 111.844 161.307C105.513 165.155 97.8621 167.867 88.8924 169.441C80.0987 171.19 70.2497 172.064 59.3454 172.064C54.0692 172.064 49.2326 171.977 44.8357 171.802C40.6147 171.802 36.3937 171.627 32.1727 171.277C28.1276 171.102 23.9945 170.84 19.7735 170.49C15.5525 170.14 11.0677 169.791 6.31906 169.441C5.96731 166.817 5.7035 162.182 5.52763 155.535C5.35175 148.714 5.17588 140.668 5 131.397C5 121.952 5 111.72 5 100.7C5 89.5057 5 78.3988 5 67.3793C5.17588 56.1849 5.35175 45.4278 5.52763 35.1079C5.7035 24.7881 5.96731 15.6926 6.31906 7.82158ZM65.1493 68.6911C69.7221 68.6911 73.4154 67.7291 76.2294 65.8051C79.0434 63.8811 80.4504 60.2953 80.4504 55.048C80.4504 51.5497 79.1314 49.1884 76.4933 47.964C74.031 46.5647 71.3049 45.8651 68.315 45.8651C66.5563 45.8651 64.7975 46.2149 63.0388 46.9145C61.4559 47.6142 59.961 48.4888 58.554 49.5382C57.147 50.4128 56.0038 51.4623 55.1244 52.6866C54.245 53.7361 53.8054 54.7856 53.8054 55.8351V68.4288C54.333 68.6037 55.2124 68.6911 56.4435 68.6911H65.1493ZM57.2349 132.971C59.5213 132.971 62.2474 132.971 65.4131 132.971C68.5789 132.971 71.5687 132.622 74.3827 131.922C77.3726 131.222 79.8349 129.998 81.7695 128.249C83.88 126.5 84.9353 123.876 84.9353 120.378C84.9353 117.579 84.1438 115.48 82.5609 114.081C81.1539 112.507 79.3073 111.37 77.0209 110.67C74.9104 109.796 72.624 109.271 70.1617 109.096C67.6995 108.921 65.501 108.834 63.5664 108.834H56.4435C54.6847 108.834 53.8054 109.621 53.8054 111.195V131.922C53.8054 132.447 54.245 132.797 55.1244 132.971C56.1797 132.971 56.8832 132.971 57.2349 132.971Z" stroke="black" stroke-opacity="0.1" stroke-width="2" shape-rendering="crispEdges" mask="url(#path-1-outside-1_199_19)"/>
    <path d="M212.357 136.645C212.884 138.569 213.236 140.843 213.412 143.466C213.764 146.09 213.94 148.801 213.94 151.6C213.94 154.398 213.764 157.109 213.412 159.733C213.236 162.182 212.884 164.368 212.357 166.292C210.774 166.992 208.575 167.604 205.761 168.129C203.123 168.479 200.133 168.829 196.792 169.178C193.45 169.353 190.021 169.441 186.503 169.441C183.162 169.441 179.996 169.441 177.006 169.441H168.564C161.177 169.441 154.758 169.266 149.306 168.916C143.853 168.391 140.072 166.992 137.962 164.718C137.61 163.144 137.346 161.22 137.17 158.946C137.17 156.672 137.17 154.311 137.17 151.862C137.17 149.413 137.258 146.965 137.434 144.516C137.61 142.067 137.786 139.968 137.962 138.219C139.193 137.169 141.215 136.382 144.029 135.858C146.843 135.333 149.745 135.07 152.735 135.07L152.207 39.0435H148.25C147.723 39.0435 146.931 39.0435 145.876 39.0435C144.997 39.0435 144.029 39.0435 142.974 39.0435C141.919 38.8686 140.864 38.7811 139.808 38.7811C138.929 38.6062 138.313 38.4313 137.962 38.2564C137.082 34.2334 136.643 29.5982 136.643 24.3508C136.643 18.9285 137.082 14.031 137.962 9.65817C140.951 8.43378 145.524 7.73412 151.68 7.55921C158.011 7.20939 164.343 7.03448 170.674 7.03448C174.192 7.03448 177.973 7.12194 182.018 7.29685C186.063 7.29685 189.933 7.3843 193.626 7.55921C197.495 7.73412 201.013 8.08395 204.179 8.60869C207.344 8.95852 209.807 9.48326 211.565 10.1829C213.148 19.6282 213.148 28.5487 211.565 36.9445C209.631 36.9445 207.608 37.1194 205.498 37.4693C203.387 37.6442 201.365 37.5567 199.43 37.2069V135.858C199.958 135.858 200.837 135.858 202.068 135.858C203.299 135.858 204.618 135.945 206.025 136.12C207.432 136.12 208.751 136.207 209.982 136.382C211.214 136.382 212.005 136.47 212.357 136.645Z" stroke="black" stroke-opacity="0.1" stroke-width="2" shape-rendering="crispEdges" mask="url(#path-1-outside-1_199_19)"/>
    <path d="M360.401 169.441C357.939 170.14 354.685 170.665 350.64 171.015C346.595 171.54 342.286 171.802 337.713 171.802C333.316 171.977 328.919 171.89 324.523 171.54C320.126 171.19 316.344 170.49 313.179 169.441C308.254 162.969 303.769 156.06 299.724 148.714C295.855 141.367 292.074 133.846 288.38 126.15C284.863 118.454 281.433 110.758 278.091 103.061C274.75 95.3653 271.056 88.019 267.011 81.0225C267.187 84.8706 267.363 88.8061 267.539 92.8291C267.891 96.6772 268.067 100.525 268.067 104.373C268.067 108.396 268.067 113.381 268.067 119.328C268.242 125.275 268.242 131.31 268.067 137.432C268.067 143.554 267.891 149.501 267.539 155.273C267.187 161.045 266.572 165.768 265.692 169.441C263.934 169.965 261.295 170.403 257.778 170.753C254.26 171.277 250.479 171.627 246.434 171.802C242.565 171.977 238.608 171.89 234.562 171.54C230.693 171.19 227.352 170.49 224.538 169.441C224.01 166.992 223.658 164.456 223.482 161.832C223.306 159.208 223.218 156.672 223.218 154.223V17.5292C223.218 15.955 223.306 14.3808 223.482 12.8066C223.834 11.0575 224.362 9.48325 225.065 8.08396C227.703 7.38431 230.957 6.94703 234.826 6.77212C238.871 6.42229 243.004 6.24737 247.225 6.24737C251.446 6.24737 255.579 6.42229 259.625 6.77212C263.846 7.12194 267.539 7.55922 270.705 8.08396C271.936 9.65817 273.695 12.8066 275.981 17.5292C278.443 22.077 281.169 27.3243 284.159 33.2714C287.325 39.2184 290.579 45.5152 293.92 52.1619C297.262 58.6337 300.34 64.5807 303.154 70.003C306.144 75.4253 308.694 79.973 310.804 83.6462C312.915 87.1444 314.234 88.981 314.761 89.1559V23.3013C314.761 20.8526 314.849 18.3163 315.025 15.6927C315.201 13.069 315.729 10.5327 316.608 8.08396C319.246 7.2094 322.588 6.5972 326.633 6.24737C330.678 5.89755 334.811 5.8101 339.032 5.98501C343.253 5.98501 347.298 6.15992 351.168 6.50974C355.037 6.85957 358.115 7.38431 360.401 8.08396C361.105 10.7076 361.456 13.7686 361.456 17.2669V151.862C361.456 154.836 361.368 157.809 361.193 160.783C361.193 163.581 360.929 166.467 360.401 169.441Z" stroke="black" stroke-opacity="0.1" stroke-width="2" shape-rendering="crispEdges" mask="url(#path-1-outside-1_199_19)"/>
    <path d="M445.984 103.061C444.401 97.4643 443.433 91.2549 443.082 84.4333C442.906 77.6117 443.873 71.4898 445.984 66.0675H479.224C485.204 66.0675 490.216 67.1169 494.261 69.2159C498.482 71.1399 501.912 73.7636 504.55 77.0869C507.188 80.2354 509.035 83.7336 510.09 87.5817C511.321 91.4298 511.937 95.1904 511.937 98.8636C511.937 108.834 510.794 118.541 508.507 127.986C506.221 137.257 502.527 145.478 497.427 152.649C492.327 159.646 485.555 165.243 477.113 169.441C468.671 173.814 458.295 176 445.984 176C432.969 176 421.713 173.639 412.216 168.916C402.894 164.018 395.156 157.547 389 149.501C383.02 141.455 378.535 132.097 375.546 121.427C372.732 110.758 371.325 99.5632 371.325 87.8441C371.325 74.3758 372.995 62.3068 376.337 51.6372C379.679 40.7926 384.603 31.6971 391.111 24.3508C397.794 16.8296 406.148 11.0575 416.173 7.03448C426.198 3.01149 437.805 1 450.996 1C456.096 1 461.021 1.26237 465.77 1.7871C470.694 2.13693 475.091 2.57421 478.96 3.09895C482.829 3.62369 486.083 4.14842 488.721 4.67316C491.359 5.02298 492.942 5.19789 493.47 5.19789C494.701 11.3198 495.229 17.7041 495.053 24.3508C494.877 30.9975 494.261 37.2069 493.206 42.979C492.503 42.6292 490.656 42.2794 487.666 41.9295C484.676 41.4048 481.247 40.8801 477.377 40.3553C473.508 39.8306 469.551 39.3933 465.506 39.0435C461.461 38.6937 457.943 38.5187 454.953 38.5187C448.973 38.5187 443.785 39.8306 439.388 42.4543C435.167 44.903 431.562 48.3138 428.572 52.6866C425.758 57.0595 423.647 62.2194 422.24 68.1664C420.833 74.1134 420.13 80.4977 420.13 87.3193C420.13 92.042 420.57 97.027 421.449 102.274C422.504 107.347 424.087 112.069 426.198 116.442C428.484 120.815 431.474 124.401 435.167 127.199C438.861 129.998 443.433 131.397 448.885 131.397C456.8 131.397 462.076 129.473 464.714 125.625C467.352 121.777 468.671 116.442 468.671 109.621C468.671 106.647 467.704 104.811 465.77 104.111C463.835 103.411 461.373 103.061 458.383 103.061H445.984Z" stroke="black" stroke-opacity="0.1" stroke-width="2" shape-rendering="crispEdges" mask="url(#path-1-outside-1_199_19)"/>
    <path d="M591.979 176C579.14 176 568.06 173.901 558.739 169.703C549.593 165.68 542.031 159.995 536.051 152.649C530.247 145.128 525.938 136.207 523.124 125.888C520.486 115.393 519.167 103.936 519.167 91.5172C519.167 77.8741 520.398 65.5427 522.86 54.5232C525.322 43.5037 529.368 34.1459 534.996 26.4498C540.799 18.5787 548.362 12.5442 557.684 8.34633C567.005 3.97351 578.525 1.7871 592.243 1.7871C605.609 1.7871 616.865 4.14842 626.011 8.87106C635.156 13.5937 642.543 20.0655 648.171 28.2863C653.799 36.3323 657.844 45.9525 660.307 57.1469C662.769 68.1664 664 79.973 664 92.5667C664 103.586 662.505 114.168 659.515 124.313C656.525 134.283 651.953 143.116 645.797 150.813C639.817 158.509 632.343 164.631 623.373 169.178C614.403 173.726 603.939 176 591.979 176ZM591.979 132.184C597.431 132.184 601.74 130.785 604.906 127.986C608.248 125.188 610.798 121.69 612.557 117.492C614.315 113.294 615.458 108.834 615.986 104.111C616.514 99.2134 616.778 94.7531 616.778 90.7301C616.778 86.5322 616.602 81.9845 616.25 77.0869C615.898 72.0145 614.843 67.3793 613.084 63.1814C611.501 58.8086 609.039 55.1354 605.697 52.1619C602.532 49.1884 598.047 47.7016 592.243 47.7016C586.967 47.7016 582.57 49.2759 579.052 52.4243C575.711 55.3978 573.073 59.1584 571.138 63.7061C569.203 68.2539 567.796 73.064 566.917 78.1364C566.213 83.034 565.862 87.4942 565.862 91.5172C565.862 95.7151 566.213 100.175 566.917 104.898C567.62 109.621 568.852 113.993 570.61 118.016C572.545 122.039 575.183 125.45 578.525 128.249C582.042 130.873 586.527 132.184 591.979 132.184Z" stroke="black" stroke-opacity="0.1" stroke-width="2" shape-rendering="crispEdges" mask="url(#path-1-outside-1_199_19)"/>
  </g>
  <defs>
    <filter id="filter0_d_199_19" x="0" y="0" width="669" height="185" filterUnits="userSpaceOnUse" color-interpolation-filters="sRGB">
      <feFlood flood-opacity="0" result="BackgroundImageFix"/>
      <feColorMatrix in="SourceAlpha" type="matrix" values="0 0 0 0 0 0 0 0 0 0 0 0 0 0 0 0 0 0 127 0" result="hardAlpha"/>
      <feOffset dy="4"/>
      <feGaussianBlur stdDeviation="2"/>
      <feComposite in2="hardAlpha" operator="out"/>
      <feColorMatrix type="matrix" values="0 0 0 0 0 0 0 0 0 0 0 0 0 0 0 0 0 0 0.25 0"/>
      <feBlend mode="normal" in2="BackgroundImageFix" result="effect1_dropShadow_199_19"/>
      <feBlend mode="normal" in="SourceGraphic" in2="effect1_dropShadow_199_19" result="shape"/>
    </filter>
  </defs>
</svg>