<svg width="279" height="400" viewBox="0 0 279 400" fill="none" xmlns="http://www.w3.org/2000/svg">
<path d="M128.295 342.847L133.897 399.992H276.759L254.349 327.161L251.548 301.95L220.174 246.486L163.03 265.534L99.7227 282.902L128.295 342.847Z" fill="#2D4D90"/>
<path d="M143.983 211.751H161.91C176.253 205.477 209.717 212.125 224.656 216.233L220.174 240.884L193.283 249.848C191.789 255.263 193.731 262.845 213.451 249.848C233.172 236.85 250.054 255.263 256.03 266.095C263.873 256.571 294.686 287.944 268.915 315.956C242.088 345.116 228.578 304.378 228.018 283.462L236.982 275.619L224.656 268.896C233.994 259.372 246.17 245.478 220.174 266.095C194.179 286.712 158.549 286.263 143.983 283.462L131.096 290.745L114.849 275.619L126.054 304.191C132.03 309.793 139.725 326.713 122.693 349.57C105.66 372.428 92.8136 361.336 88.5191 352.932C77.8734 294.667 89.8917 311.474 85.718 299.709C80.789 285.815 90.7601 267.402 96.3623 259.932C94.1214 256.944 90.0876 249.96 91.8804 245.926C93.6732 241.892 110.555 228.185 118.772 221.836L143.983 211.751Z" fill="#A7041C"/>
<path d="M99.1621 234.161L109.246 256.57L123.252 249.287L112.608 222.956L99.1621 234.161Z" fill="#2D4D90"/>
<path d="M92.9998 341.167C91.6552 337.133 104.018 316.703 110.367 306.992C114.849 275.058 87.9578 272.257 98.6021 261.052C109.246 249.848 129.229 245.366 133.897 248.727C134.457 253.209 131.656 262.75 136.138 263.293C150.928 265.086 147.903 277.486 144.542 283.462C155.747 290.745 152.945 290.185 147.343 298.028C142.976 304.142 131.096 306.992 124.373 306.992C120.451 309.233 124.373 332.203 114.849 348.45C104.431 366.221 94.6805 346.209 92.9998 341.167Z" fill="#E49B4D"/>
<path d="M211.771 225.894L200.853 230.239L190.481 208.95H205.766L211.771 225.894Z" fill="#2D4D90"/>
<path d="M267.627 295.844C267.102 291.777 247.816 279.204 238.238 273.426C220.962 247.562 243.108 233.873 229.179 228.595C215.251 223.316 196.044 227.787 193.405 232.661C194.798 236.788 201.227 243.904 197.569 246.252C185.495 254 193.317 263.505 198.737 267.289C192.075 278.306 194.269 276.647 202.416 281.115C208.766 284.598 220.263 282.102 226.093 279.288C230.433 279.593 236.663 301.188 251.734 311.315C268.219 322.393 268.284 300.927 267.627 295.844Z" fill="#E49B4D"/>
<path d="M158.548 342.287C155.56 329.775 149.36 303.743 148.464 299.709L215.132 286.263C220.175 301.763 230.371 333.323 230.819 335.564C231.267 337.805 182.825 340.98 158.548 342.287Z" fill="#295299"/>
<path d="M134.458 229.118C135.018 213.992 128.855 180.378 128.855 178.137L163.03 164.131L195.524 230.799C174.982 235.281 134.01 241.22 134.458 229.118Z" fill="#E09349"/>
<path d="M4.48192 138.92L0 148.444L76.7529 157.408L82.3553 153.486L202.247 114.269C208.97 106.426 260.585 81.215 256.03 75.0524C248.411 64.7439 206.542 55.0705 186.56 51.5223L179.277 46.4801L143.422 51.5223L72.271 69.45L48.7409 85.6969L4.48192 138.92Z" fill="#EDB037"/>
<path d="M33.6147 125.474C60.8797 123.42 116.53 119.423 121.012 119.872L107.006 106.426C105.139 106.426 113.617 104.297 162.47 95.7813C211.323 87.2656 221.295 68.703 220.175 60.4861H152.386C158.175 63.8476 160.005 71.3548 121.012 74.4922C82.0194 77.6295 38.6568 106.052 21.8496 119.872L33.6147 125.474Z" fill="#562F18"/>
<path d="M68.9098 117.631L63.8677 83.456L185.44 51.5223V60.4861L191.042 80.0945C190.855 84.5765 191.378 96.1174 194.964 106.426C198.549 116.734 199.446 149.938 199.446 165.251C196.271 173.655 178.269 191.134 131.657 193.823C85.0447 196.512 73.7652 155.727 73.952 134.998L66.6689 132.757C64.2412 129.582 59.3857 121.328 59.3857 113.709H63.8677L68.9098 117.631Z" fill="#E49B4D"/>
<path d="M137.259 150.685C130.984 149.341 126.054 143.029 124.373 140.041C125.12 123.42 129.549 95.7817 132.777 101.944C138.939 113.709 155.186 120.432 159.668 123.794C164.15 127.155 169.753 135.559 169.753 140.041C169.753 144.523 164.15 147.884 159.668 152.366C155.186 156.848 145.102 152.366 137.259 150.685Z" fill="#D97239" fill-opacity="0.8"/>
<path d="M146.783 249.287L124.373 217.914L132.216 211.191L167.512 235.842L146.783 249.287Z" fill="#FFF5F5"/>
<path d="M174.795 235.281L191.602 241.444L194.403 212.312L186.56 206.709L174.795 235.281Z" fill="#FFFDFD"/>
<ellipse cx="161.463" cy="105.53" rx="5.52091" ry="7.97464" transform="rotate(-10.7803 161.463 105.53)" fill="#180200"/>
<ellipse cx="108.879" cy="116.974" rx="5.52091" ry="7.97464" transform="rotate(-10.7803 108.879 116.974)" fill="#180000"/>
<circle cx="172.554" cy="243.685" r="4.48192" fill="#D9D9D9"/>
<circle cx="180.398" cy="272.818" r="4.48192" fill="#D9D9D9"/>
<circle cx="177.036" cy="258.251" r="4.48192" fill="#D9D9D9"/>
<path d="M50.4219 71.6912L51.3469 71.2454C51.8141 63.7444 46.8191 19.3968 96.9218 4.46237C143.534 -9.43159 173.114 21.8298 182.078 39.1973L128.856 41.4382L96.9218 49.2816L51.3469 71.2454C51.2708 72.4674 51.0497 72.7115 50.4219 71.6912Z" fill="#EDB037" stroke="#FEAF2D"/>
<path d="M47.6201 73.9319L53.7828 83.456C68.5358 77.6668 101.291 64.968 114.289 60.4861C127.286 56.0042 166.765 51.1488 184.879 49.2813V40.8777L179.837 36.956L151.825 29.1127L77.8731 51.5223L47.6201 73.9319Z" fill="#7424B3"/>
<path d="M107.006 154.607C117.464 170.48 146.447 193.823 178.717 160.209" stroke="#AA5A27" stroke-width="3"/>
</svg>
