<svg width="397" height="60" viewBox="0 0 397 60" fill="none" xmlns="http://www.w3.org/2000/svg">
<path d="M1.36874 2.7603C2.15006 2.46544 3.14175 2.22956 4.3438 2.05265C5.60594 1.87574 6.92819 1.78728 8.31054 1.78728C9.753 1.72831 11.1353 1.78729 12.4576 1.9642C13.8399 2.14111 15.072 2.40647 16.1539 2.7603C16.2741 3.58588 16.2741 4.67684 16.1539 6.03316C16.0938 7.38948 16.1238 8.45095 16.244 9.21757C16.785 8.33301 17.3259 7.41897 17.8668 6.47544C18.4678 5.53191 19.159 4.64735 19.9403 3.82177C20.7818 2.99618 21.7434 2.31802 22.8252 1.78728C23.9672 1.25655 25.3495 0.991182 26.9723 0.991182C28.8355 0.991182 30.6686 1.31552 32.4716 1.9642C34.3348 2.61287 35.9876 3.58589 37.4301 4.88324C38.9326 6.12162 40.1347 7.68434 41.0362 9.57139C41.9377 11.3995 42.3885 13.5224 42.3885 15.9402C42.3885 19.7143 41.3067 22.7218 39.143 24.9627C37.0394 27.2036 34.3048 28.7073 30.939 29.4739C32.3214 29.5329 33.7638 29.8573 35.2664 30.447C36.8291 30.9777 38.2715 31.7443 39.5938 32.7468C40.916 33.7493 41.9978 34.9877 42.8393 36.4619C43.7408 37.9362 44.1916 39.6464 44.1916 41.5924C44.1916 44.6589 43.5906 47.2536 42.3885 49.3765C41.2466 51.4994 39.5938 53.2096 37.4301 54.5069C35.2664 55.8043 32.6519 56.7183 29.5867 57.2491C26.5816 57.8388 23.2159 58.1336 19.4896 58.1336C17.6865 58.1336 16.0337 58.1041 14.5311 58.0452C13.0887 58.0452 11.6462 57.9862 10.2038 57.8682C8.82141 57.8093 7.40901 57.7208 5.96656 57.6029C4.5241 57.4849 2.9915 57.367 1.36874 57.2491C1.24853 56.3645 1.15838 54.8018 1.09828 52.5609C1.03817 50.2611 0.978071 47.5484 0.917969 44.423C0.917969 41.2386 0.917969 37.7888 0.917969 34.0736C0.917969 30.2995 0.917969 26.5549 0.917969 22.8398C0.978071 19.0656 1.03817 15.439 1.09828 11.9597C1.15838 8.48044 1.24853 5.41397 1.36874 2.7603ZM21.4729 23.282C23.0356 23.282 24.2977 22.9577 25.2594 22.309C26.221 21.6603 26.7018 20.4515 26.7018 18.6823C26.7018 17.5029 26.2511 16.7068 25.3495 16.294C24.5081 15.8223 23.5765 15.5864 22.5548 15.5864C21.9538 15.5864 21.3527 15.7043 20.7517 15.9402C20.2108 16.1761 19.6999 16.4709 19.2191 16.8248C18.7383 17.1196 18.3476 17.4734 18.0471 17.8862C17.7466 18.2401 17.5963 18.5939 17.5963 18.9477V23.1936C17.7766 23.2526 18.0772 23.282 18.4979 23.282H21.4729ZM18.7683 44.9537C19.5497 44.9537 20.4812 44.9537 21.5631 44.9537C22.6449 44.9537 23.6667 44.8358 24.6283 44.5999C25.65 44.364 26.4915 43.9512 27.1526 43.3615C27.8738 42.7718 28.2344 41.8872 28.2344 40.7078C28.2344 39.7643 27.964 39.0567 27.4231 38.5849C26.9422 38.0542 26.3112 37.6708 25.5298 37.435C24.8086 37.1401 24.0273 36.9632 23.1858 36.9042C22.3444 36.8453 21.5931 36.8158 20.932 36.8158H18.4979C17.8969 36.8158 17.5963 37.0811 17.5963 37.6119V44.5999C17.5963 44.7768 17.7466 44.8947 18.0471 44.9537C18.4077 44.9537 18.6481 44.9537 18.7683 44.9537Z" fill="#D30520"/>
<path d="M78.4203 3.02567C79.442 2.67184 80.6741 2.43596 82.1166 2.31802C83.559 2.14111 85.0315 2.05265 86.5341 2.05265C89.3589 2.05265 91.6728 2.37699 93.4759 3.02567C93.5961 3.61537 93.6862 4.20507 93.7463 4.79478C93.8064 5.38449 93.8365 6.00368 93.8365 6.65235V34.9582C93.8365 42.6244 91.9733 48.315 88.247 52.0302C84.5807 55.7453 78.6306 57.6029 70.3966 57.6029C63.004 57.6029 57.2643 55.9222 53.1773 52.5609C49.1505 49.1406 47.1371 43.9512 47.1371 36.9927V6.82926C47.1371 6.23956 47.1671 5.62037 47.2272 4.97169C47.2873 4.32302 47.4075 3.67434 47.5878 3.02567C48.4894 2.67184 49.6313 2.40648 51.0137 2.22956C52.396 2.05265 53.8385 1.9642 55.341 1.9642C56.8436 1.9642 58.286 2.05265 59.6684 2.22956C61.1108 2.40648 62.3129 2.67184 63.2745 3.02567C63.3947 3.61537 63.4548 4.26405 63.4548 4.97169C63.4548 5.62037 63.4548 6.29853 63.4548 7.00618V36.3735C63.4548 37.4939 63.6652 38.4669 64.0859 39.2925C64.5667 40.1181 65.1377 40.8258 65.7988 41.4155C66.52 42.0052 67.3014 42.4475 68.1428 42.7423C69.0443 43.0372 69.9158 43.1846 70.7572 43.1846C72.0194 43.1846 73.1012 42.8602 74.0028 42.2116C74.9043 41.5629 75.6255 40.7078 76.1664 39.6464C76.7675 38.5849 77.2182 37.4055 77.5187 36.1081C77.8193 34.8108 77.9695 33.5134 77.9695 32.2161V6.74081C77.9695 5.73831 78.1198 4.49993 78.4203 3.02567Z" fill="#09D305"/>
<path d="M127.056 56.8952C124.471 57.7208 121.677 58.0746 118.672 57.9567C115.667 57.8977 112.992 57.5439 110.648 56.8952V39.381C110.648 38.4375 110.317 37.0222 109.656 35.1351C109.055 33.2481 108.274 31.1251 107.312 28.7663C106.351 26.4075 105.269 23.9307 104.067 21.336C102.925 18.6823 101.813 16.1761 100.731 13.8173C99.6493 11.3995 98.6576 9.21757 97.7561 7.27155C96.9146 5.26655 96.3437 3.7628 96.0431 2.7603C98.5073 2.28853 101.182 2.02317 104.067 1.9642C106.952 1.90523 109.837 2.17059 112.722 2.7603L118.852 22.0437L125.253 2.7603C126.275 2.46544 127.447 2.25905 128.769 2.14111C130.091 2.02317 131.443 1.99368 132.826 2.05265C134.208 2.05265 135.56 2.11162 136.883 2.22956C138.205 2.34751 139.407 2.52442 140.489 2.7603C140.489 3.52691 140.158 4.79478 139.497 6.5639C138.836 8.33301 137.995 10.397 136.973 12.7558C136.011 15.1146 134.929 17.6209 133.727 20.2745C132.585 22.9282 131.503 25.5229 130.482 28.0587C129.52 30.5354 128.709 32.8353 128.048 34.9582C127.386 37.0222 127.056 38.6439 127.056 39.8233V56.8952Z" fill="#EBF57C"/>
<path d="M172.167 2.7603C172.948 2.46544 173.94 2.22956 175.142 2.05265C176.404 1.87574 177.727 1.78728 179.109 1.78728C180.551 1.72831 181.934 1.78729 183.256 1.9642C184.638 2.14111 185.87 2.40647 186.952 2.7603C187.072 3.58588 187.072 4.67684 186.952 6.03316C186.892 7.38948 186.922 8.45095 187.042 9.21757C187.583 8.33301 188.124 7.41897 188.665 6.47544C189.266 5.53191 189.957 4.64735 190.739 3.82177C191.58 2.99618 192.542 2.31802 193.624 1.78728C194.766 1.25655 196.148 0.991182 197.771 0.991182C199.634 0.991182 201.467 1.31552 203.27 1.9642C205.133 2.61287 206.786 3.58589 208.228 4.88324C209.731 6.12162 210.933 7.68434 211.835 9.57139C212.736 11.3995 213.187 13.5224 213.187 15.9402C213.187 19.7143 212.105 22.7218 209.941 24.9627C207.838 27.2036 205.103 28.7073 201.737 29.4739C203.12 29.5329 204.562 29.8573 206.065 30.447C207.627 30.9777 209.07 31.7443 210.392 32.7468C211.714 33.7493 212.796 34.9877 213.638 36.4619C214.539 37.9362 214.99 39.6464 214.99 41.5924C214.99 44.6589 214.389 47.2536 213.187 49.3765C212.045 51.4994 210.392 53.2096 208.228 54.5069C206.065 55.8043 203.45 56.7183 200.385 57.2491C197.38 57.8388 194.014 58.1336 190.288 58.1336C188.485 58.1336 186.832 58.1041 185.329 58.0452C183.887 58.0452 182.445 57.9862 181.002 57.8682C179.62 57.8093 178.207 57.7208 176.765 57.6029C175.322 57.4849 173.79 57.367 172.167 57.2491C172.047 56.3645 171.957 54.8018 171.897 52.5609C171.837 50.2611 171.776 47.5484 171.716 44.423C171.716 41.2386 171.716 37.7888 171.716 34.0736C171.716 30.2995 171.716 26.5549 171.716 22.8398C171.776 19.0656 171.837 15.439 171.897 11.9597C171.957 8.48044 172.047 5.41397 172.167 2.7603ZM192.271 23.282C193.834 23.282 195.096 22.9577 196.058 22.309C197.019 21.6603 197.5 20.4515 197.5 18.6823C197.5 17.5029 197.049 16.7068 196.148 16.294C195.306 15.8223 194.375 15.5864 193.353 15.5864C192.752 15.5864 192.151 15.7043 191.55 15.9402C191.009 16.1761 190.498 16.4709 190.017 16.8248C189.537 17.1196 189.146 17.4734 188.845 17.8862C188.545 18.2401 188.395 18.5939 188.395 18.9477V23.1936C188.575 23.2526 188.876 23.282 189.296 23.282H192.271ZM189.567 44.9537C190.348 44.9537 191.28 44.9537 192.361 44.9537C193.443 44.9537 194.465 44.8358 195.427 44.5999C196.448 44.364 197.29 43.9512 197.951 43.3615C198.672 42.7718 199.033 41.8872 199.033 40.7078C199.033 39.7643 198.762 39.0567 198.221 38.5849C197.741 38.0542 197.109 37.6708 196.328 37.435C195.607 37.1401 194.826 36.9632 193.984 36.9042C193.143 36.8453 192.391 36.8158 191.73 36.8158H189.296C188.695 36.8158 188.395 37.0811 188.395 37.6119V44.5999C188.395 44.7768 188.545 44.8947 188.845 44.9537C189.206 44.9537 189.446 44.9537 189.567 44.9537Z" fill="#D30520"/>
<path d="M242.577 46.1921C242.757 46.8408 242.877 47.6074 242.937 48.4919C243.058 49.3765 243.118 50.2905 243.118 51.2341C243.118 52.1776 243.058 53.0916 242.937 53.9762C242.877 54.8018 242.757 55.5389 242.577 56.1876C242.036 56.4235 241.285 56.6299 240.323 56.8068C239.421 56.9247 238.4 57.0427 237.258 57.1606C236.116 57.2196 234.944 57.2491 233.742 57.2491C232.6 57.2491 231.518 57.2491 230.496 57.2491H227.611C225.087 57.2491 222.893 57.1901 221.03 57.0721C219.167 56.8952 217.875 56.4235 217.154 55.6569C217.033 55.1261 216.943 54.4774 216.883 53.7108C216.883 52.9442 216.883 52.1481 216.883 51.3225C216.883 50.4969 216.913 49.6713 216.973 48.8458C217.033 48.0202 217.094 47.3125 217.154 46.7228C217.574 46.369 218.265 46.1036 219.227 45.9267C220.189 45.7498 221.18 45.6614 222.202 45.6614L222.022 13.2865H220.67C220.489 13.2865 220.219 13.2865 219.858 13.2865C219.558 13.2865 219.227 13.2865 218.867 13.2865C218.506 13.2276 218.145 13.1981 217.785 13.1981C217.484 13.1391 217.274 13.0801 217.154 13.0212C216.853 11.6648 216.703 10.1021 216.703 8.33301C216.703 6.50492 216.853 4.85375 217.154 3.37949C218.175 2.96669 219.738 2.73081 221.842 2.67184C224.005 2.5539 226.169 2.49493 228.333 2.49493C229.535 2.49493 230.827 2.52442 232.209 2.58339C233.592 2.58339 234.914 2.61287 236.176 2.67184C237.498 2.73081 238.7 2.84875 239.782 3.02567C240.864 3.14361 241.705 3.32052 242.306 3.5564C242.847 6.74081 242.847 9.7483 242.306 12.5789C241.645 12.5789 240.954 12.6379 240.233 12.7558C239.512 12.8148 238.82 12.7853 238.159 12.6673V45.9267C238.34 45.9267 238.64 45.9267 239.061 45.9267C239.482 45.9267 239.932 45.9562 240.413 46.0152C240.894 46.0152 241.345 46.0447 241.765 46.1036C242.186 46.1036 242.457 46.1331 242.577 46.1921Z" fill="#EBF57C"/>
<path d="M293.168 57.2491C292.327 57.4849 291.215 57.6618 289.833 57.7798C288.45 57.9567 286.978 58.0452 285.415 58.0452C283.913 58.1041 282.41 58.0746 280.908 57.9567C279.405 57.8388 278.113 57.6029 277.031 57.2491C275.348 55.0671 273.815 52.7378 272.433 50.2611C271.111 47.7843 269.819 45.2486 268.556 42.6539C267.354 40.0592 266.182 37.4644 265.041 34.8697C263.899 32.275 262.636 29.7983 261.254 27.4395C261.314 28.7368 261.374 30.0636 261.434 31.42C261.555 32.7173 261.615 34.0147 261.615 35.312C261.615 36.6683 261.615 38.349 261.615 40.354C261.675 42.359 261.675 44.3935 261.615 46.4575C261.615 48.5214 261.555 50.5264 261.434 52.4724C261.314 54.4185 261.104 56.0107 260.803 57.2491C260.202 57.426 259.301 57.5734 258.099 57.6913C256.897 57.8682 255.604 57.9862 254.222 58.0452C252.9 58.1041 251.548 58.0746 250.165 57.9567C248.843 57.8388 247.701 57.6029 246.739 57.2491C246.559 56.4235 246.439 55.5684 246.379 54.6838C246.319 53.7993 246.289 52.9442 246.289 52.1186V6.03316C246.289 5.50243 246.319 4.9717 246.379 4.44096C246.499 3.85125 246.679 3.32052 246.92 2.84876C247.821 2.61287 248.933 2.46545 250.255 2.40648C251.638 2.28853 253.05 2.22956 254.493 2.22956C255.935 2.22956 257.347 2.28853 258.73 2.40648C260.172 2.52442 261.434 2.67184 262.516 2.84876C262.937 3.37949 263.538 4.44096 264.319 6.03316C265.161 7.56639 266.092 9.33551 267.114 11.3405C268.196 13.3455 269.308 15.4684 270.45 17.7093C271.592 19.8912 272.643 21.8962 273.605 23.7243C274.627 25.5524 275.498 27.0856 276.22 28.324C276.941 29.5034 277.392 30.1226 277.572 30.1816V7.97919C277.572 7.1536 277.602 6.29853 277.662 5.41397C277.722 4.52942 277.902 3.67434 278.203 2.84876C279.104 2.5539 280.246 2.34751 281.629 2.22956C283.011 2.11162 284.423 2.08214 285.866 2.14111C287.308 2.14111 288.691 2.20008 290.013 2.31802C291.335 2.43596 292.387 2.61287 293.168 2.84876C293.409 3.73331 293.529 4.7653 293.529 5.94471V51.3225C293.529 52.325 293.499 53.3275 293.439 54.33C293.439 55.2735 293.349 56.2466 293.168 57.2491Z" fill="#2FB7E2"/>
<path d="M322.415 34.8697C321.874 32.9827 321.543 30.8892 321.423 28.5894C321.363 26.2895 321.693 24.2256 322.415 22.3975H333.774C335.817 22.3975 337.53 22.7513 338.913 23.459C340.355 24.1076 341.527 24.9922 342.429 26.1126C343.33 27.1741 343.961 28.3535 344.322 29.6509C344.743 30.9482 344.953 32.2161 344.953 33.4545C344.953 36.8158 344.562 40.0886 343.781 43.273C343 46.3985 341.738 49.1701 339.995 51.5879C338.252 53.9467 335.938 55.8338 333.053 57.2491C330.168 58.7233 326.622 59.4604 322.415 59.4604C317.967 59.4604 314.121 58.6643 310.875 57.0721C307.69 55.421 305.045 53.2391 302.942 50.5264C300.898 47.8138 299.365 44.6589 298.344 41.0616C297.382 37.4644 296.901 33.6903 296.901 29.7393C296.901 25.1986 297.472 21.1296 298.614 17.5324C299.756 13.8762 301.439 10.8098 303.663 8.33301C305.947 5.79728 308.802 3.85125 312.227 2.49493C315.653 1.13861 319.62 0.460449 324.128 0.460449C325.871 0.460449 327.553 0.548904 329.176 0.725813C330.859 0.843756 332.362 0.991184 333.684 1.1681C335.006 1.34501 336.118 1.52192 337.02 1.69883C337.921 1.81677 338.462 1.87574 338.642 1.87574C339.063 3.93971 339.243 6.09213 339.183 8.33301C339.123 10.5739 338.913 12.6673 338.552 14.6134C338.312 14.4954 337.681 14.3775 336.659 14.2595C335.637 14.0826 334.465 13.9057 333.143 13.7288C331.821 13.5519 330.468 13.4045 329.086 13.2865C327.704 13.1686 326.502 13.1096 325.48 13.1096C323.436 13.1096 321.663 13.5519 320.161 14.4365C318.718 15.262 317.486 16.412 316.465 17.8862C315.503 19.3605 314.782 21.1001 314.301 23.1051C313.82 25.1101 313.58 27.2625 313.58 29.5624C313.58 31.1546 313.73 32.8353 314.03 34.6044C314.391 36.3145 314.932 37.9067 315.653 39.381C316.435 40.8553 317.456 42.0641 318.718 43.0077C319.981 43.9512 321.543 44.423 323.406 44.423C326.111 44.423 327.914 43.7743 328.816 42.4769C329.717 41.1796 330.168 39.381 330.168 37.0811C330.168 36.0786 329.837 35.4594 329.176 35.2236C328.515 34.9877 327.674 34.8697 326.652 34.8697H322.415Z" fill="#09D305"/>
<path d="M372.306 59.4604C367.919 59.4604 364.132 58.7528 360.947 57.3375C357.822 55.9812 355.237 54.0646 353.194 51.5879C351.21 49.0522 349.738 46.0447 348.776 42.5654C347.875 39.0272 347.424 35.1646 347.424 30.9777C347.424 26.378 347.845 22.2206 348.686 18.5054C349.527 14.7903 350.91 11.6354 352.833 9.04066C354.816 6.38698 357.401 4.3525 360.586 2.93721C363.772 1.46295 367.708 0.725813 372.396 0.725813C376.964 0.725813 380.811 1.52192 383.936 3.11412C387.061 4.70632 389.586 6.88823 391.509 9.65985C393.432 12.3725 394.814 15.6159 395.656 19.39C396.497 23.1051 396.918 27.0856 396.918 31.3315C396.918 35.0467 396.407 38.6144 395.385 42.0347C394.364 45.396 392.801 48.374 390.697 50.9687C388.654 53.5634 386.1 55.6274 383.034 57.1606C379.969 58.6938 376.393 59.4604 372.306 59.4604ZM372.306 44.6883C374.169 44.6883 375.642 44.2166 376.724 43.273C377.866 42.3295 378.737 41.1501 379.338 39.7348C379.939 38.3195 380.33 36.8158 380.51 35.2236C380.69 33.5724 380.781 32.0686 380.781 30.7123C380.781 29.297 380.72 27.7638 380.6 26.1126C380.48 24.4025 380.119 22.8398 379.518 21.4245C378.977 19.9502 378.136 18.7118 376.994 17.7093C375.912 16.7068 374.38 16.2056 372.396 16.2056C370.593 16.2056 369.091 16.7363 367.889 17.7978C366.747 18.8003 365.845 20.0681 365.184 21.6014C364.523 23.1346 364.042 24.7563 363.742 26.4664C363.501 28.1176 363.381 29.6214 363.381 30.9777C363.381 32.393 363.501 33.8967 363.742 35.4889C363.982 37.0811 364.403 38.5554 365.004 39.9117C365.665 41.268 366.566 42.418 367.708 43.3615C368.91 44.2461 370.443 44.6883 372.306 44.6883Z" fill="#8505D3"/>
</svg>
