<svg xmlns="http://www.w3.org/2000/svg" width="485" height="136" viewBox="0 0 485 136" fill="none">
  <g filter="url(#filter0_d_199_355)">
    <mask id="path-1-outside-1_199_355" maskUnits="userSpaceOnUse" x="4" y="0" width="477" height="128" fill="black">
      <rect fill="white" x="4" width="477" height="128"/>
      <path d="M5.95077 5.91154C7.59876 5.28185 9.69045 4.77811 12.2258 4.4003C14.888 4.02249 17.6769 3.83358 20.5926 3.83358C23.635 3.70764 26.5507 3.83358 29.3396 4.2114C32.2553 4.5892 34.8541 5.15592 37.1359 5.91154C37.3895 7.67465 37.3895 10.0045 37.1359 12.901C37.0091 15.7976 37.0725 18.0645 37.3261 19.7016C38.467 17.8126 39.6079 15.8606 40.7488 13.8456C42.0165 11.8306 43.4744 9.94153 45.1223 8.17841C46.8971 6.41529 48.9254 4.96701 51.2073 3.83358C53.6159 2.70015 56.5316 2.13343 59.9543 2.13343C63.8841 2.13343 67.7506 2.82609 71.5537 4.2114C75.4835 5.5967 78.9696 7.67466 82.0121 10.4453C85.1813 13.09 87.7167 16.4273 89.6182 20.4573C91.5198 24.3613 92.4705 28.8951 92.4705 34.0585C92.4705 42.1184 90.1887 48.5412 85.625 53.3268C81.1881 58.1124 75.4201 61.3238 68.3211 62.961C71.2367 63.0869 74.2792 63.7796 77.4484 65.039C80.7444 66.1724 83.7869 67.8096 86.5758 69.9505C89.3647 72.0914 91.6465 74.7361 93.4213 77.8846C95.3228 81.033 96.2736 84.6852 96.2736 88.8411C96.2736 95.3898 95.0059 100.931 92.4705 105.465C90.0619 109.998 86.5758 113.651 82.0121 116.421C77.4484 119.192 71.934 121.144 65.4688 122.277C59.1303 123.537 52.0312 124.166 44.1716 124.166C40.3685 124.166 36.8824 124.103 33.7132 123.978C30.6707 123.978 27.6282 123.852 24.5858 123.6C21.6701 123.474 18.691 123.285 15.6486 123.033C12.6061 122.781 9.37353 122.529 5.95077 122.277C5.69723 120.388 5.50708 117.051 5.38031 112.265C5.25354 107.354 5.12677 101.561 5 94.8861C5 88.0855 5 80.7181 5 72.7841C5 64.7241 5 56.7271 5 48.7931C5.12677 40.7331 5.25354 32.988 5.38031 25.5577C5.50708 18.1274 5.69723 11.5787 5.95077 5.91154ZM48.355 49.7376C51.6509 49.7376 54.3131 49.045 56.3414 47.6597C58.3697 46.2744 59.3838 43.6927 59.3838 39.9145C59.3838 37.3958 58.4331 35.6956 56.5315 34.8141C54.7568 33.8066 52.7919 33.3028 50.6368 33.3028C49.3691 33.3028 48.1014 33.5547 46.8337 34.0585C45.6928 34.5622 44.6153 35.1919 43.6011 35.9475C42.587 36.5772 41.763 37.3328 41.1291 38.2144C40.4953 38.97 40.1784 39.7256 40.1784 40.4813V49.5487C40.5587 49.6747 41.1925 49.7376 42.0799 49.7376H48.355ZM42.6504 96.0195C44.2984 96.0195 46.2633 96.0195 48.5451 96.0195C50.8269 96.0195 52.982 95.7676 55.0103 95.2639C57.1654 94.7601 58.9402 93.8786 60.3346 92.6192C61.8558 91.3598 62.6165 89.4708 62.6165 86.952C62.6165 84.937 62.046 83.4258 60.9051 82.4183C59.8909 81.2849 58.5598 80.4663 56.9119 79.9625C55.3906 79.3328 53.7426 78.955 51.9679 78.8291C50.1931 78.7031 48.6085 78.6402 47.214 78.6402H42.0799C40.8122 78.6402 40.1784 79.2069 40.1784 80.3403V95.2639C40.1784 95.6417 40.4953 95.8935 41.1291 96.0195C41.8897 96.0195 42.3968 96.0195 42.6504 96.0195Z"/>
      <path d="M154.46 98.6642C154.841 100.049 155.094 101.687 155.221 103.576C155.475 105.465 155.601 107.417 155.601 109.432C155.601 111.447 155.475 113.399 155.221 115.288C155.094 117.051 154.841 118.625 154.46 120.01C153.32 120.514 151.735 120.955 149.707 121.333C147.805 121.585 145.65 121.837 143.241 122.088C140.833 122.214 138.361 122.277 135.825 122.277C133.417 122.277 131.135 122.277 128.98 122.277H122.895C117.571 122.277 112.944 122.151 109.014 121.9C105.084 121.522 102.358 120.514 100.837 118.877C100.584 117.744 100.394 116.358 100.267 114.721C100.267 113.084 100.267 111.384 100.267 109.621C100.267 107.858 100.33 106.094 100.457 104.331C100.584 102.568 100.71 101.057 100.837 99.7976C101.725 99.042 103.182 98.4753 105.211 98.0975C107.239 97.7196 109.331 97.5307 111.486 97.5307L111.106 28.3913H108.253C107.873 28.3913 107.302 28.3913 106.542 28.3913C105.908 28.3913 105.211 28.3913 104.45 28.3913C103.69 28.2654 102.929 28.2024 102.168 28.2024C101.534 28.0765 101.091 27.9505 100.837 27.8246C100.203 24.928 99.8865 21.5907 99.8865 17.8126C99.8865 13.9085 100.203 10.3823 100.837 7.23388C102.992 6.35232 106.288 5.84857 110.725 5.72263C115.289 5.47076 119.853 5.34483 124.416 5.34483C126.952 5.34483 129.677 5.4078 132.593 5.53373C135.509 5.53373 138.297 5.5967 140.96 5.72263C143.749 5.84857 146.284 6.10044 148.566 6.47826C150.848 6.73014 152.622 7.10795 153.89 7.61169C155.031 14.4123 155.031 20.8351 153.89 26.8801C152.496 26.8801 151.038 27.006 149.517 27.2579C147.995 27.3838 146.537 27.3208 145.143 27.069V98.0975C145.523 98.0975 146.157 98.0975 147.045 98.0975C147.932 98.0975 148.883 98.1604 149.897 98.2864C150.911 98.2864 151.862 98.3493 152.749 98.4753C153.636 98.4753 154.207 98.5382 154.46 98.6642Z"/>
      <path d="M261.169 122.277C259.394 122.781 257.049 123.159 254.134 123.411C251.218 123.789 248.112 123.978 244.816 123.978C241.647 124.103 238.478 124.04 235.308 123.789C232.139 123.537 229.414 123.033 227.132 122.277C223.582 117.618 220.35 112.643 217.434 107.354C214.645 102.064 211.919 96.6492 209.257 91.1079C206.722 85.5667 204.25 80.0255 201.841 74.4843C199.433 68.943 196.771 63.6537 193.855 58.6162C193.982 61.3868 194.108 64.2204 194.235 67.1169C194.489 69.8876 194.616 72.6582 194.616 75.4288C194.616 78.3253 194.616 81.9145 194.616 86.1964C194.742 90.4783 194.742 94.8231 194.616 99.2309C194.616 103.639 194.489 107.921 194.235 112.076C193.982 116.232 193.538 119.633 192.904 122.277C191.636 122.655 189.735 122.97 187.2 123.222C184.664 123.6 181.939 123.852 179.023 123.978C176.234 124.103 173.382 124.04 170.466 123.789C167.677 123.537 165.269 123.033 163.24 122.277C162.86 120.514 162.606 118.688 162.48 116.799C162.353 114.91 162.289 113.084 162.289 111.321V12.901C162.289 11.7676 162.353 10.6342 162.48 9.50075C162.733 8.24138 163.113 7.10794 163.621 6.10045C165.522 5.5967 167.867 5.28186 170.656 5.15592C173.572 4.90405 176.551 4.77811 179.593 4.77811C182.636 4.77811 185.615 4.90405 188.531 5.15592C191.573 5.4078 194.235 5.72264 196.517 6.10045C197.404 7.23388 198.672 9.50075 200.32 12.901C202.095 16.1754 204.06 19.9535 206.215 24.2354C208.497 28.5172 210.842 33.051 213.251 37.8366C215.659 42.4963 217.878 46.7781 219.906 50.6822C222.061 54.5862 223.899 57.8606 225.42 60.5052C226.942 63.024 227.892 64.3463 228.273 64.4723V17.057C228.273 15.2938 228.336 13.4678 228.463 11.5787C228.59 9.68966 228.97 7.86357 229.604 6.10045C231.505 5.47077 233.914 5.02999 236.83 4.77811C239.745 4.52624 242.724 4.46327 245.767 4.5892C248.809 4.5892 251.725 4.71514 254.514 4.96701C257.303 5.21889 259.521 5.5967 261.169 6.10045C261.676 7.9895 261.93 10.1934 261.93 12.7121V109.621C261.93 111.762 261.866 113.903 261.74 116.043C261.74 118.058 261.549 120.136 261.169 122.277Z"/>
      <path d="M322.856 74.4843C321.715 70.4543 321.018 65.9835 320.764 61.072C320.638 56.1604 321.335 51.7526 322.856 47.8486H346.815C351.126 47.8486 354.738 48.6042 357.654 50.1154C360.697 51.5007 363.169 53.3898 365.07 55.7826C366.972 58.0495 368.303 60.5682 369.063 63.3388C369.951 66.1094 370.394 68.8171 370.394 71.4618C370.394 78.6402 369.57 85.6297 367.922 92.4303C366.274 99.1049 363.612 105.024 359.936 110.187C356.26 115.225 351.379 119.255 345.294 122.277C339.209 125.426 331.73 127 322.856 127C313.475 127 305.362 125.3 298.516 121.9C291.798 118.373 286.22 113.714 281.783 107.921C277.473 102.127 274.24 95.3898 272.085 87.7076C270.057 80.0255 269.043 71.9655 269.043 63.5277C269.043 53.8306 270.247 45.1409 272.656 37.4588C275.064 29.6507 278.614 23.1019 283.304 17.8126C288.121 12.3973 294.143 8.24138 301.369 5.34483C308.595 2.44828 316.961 1 326.469 1C330.145 1 333.695 1.1889 337.118 1.56671C340.667 1.81859 343.836 2.13343 346.625 2.51125C349.414 2.88905 351.759 3.26686 353.661 3.64468C355.562 3.89655 356.703 4.02248 357.084 4.02248C357.971 8.43028 358.351 13.027 358.225 17.8126C358.098 22.5982 357.654 27.069 356.894 31.2249C356.386 30.973 355.055 30.7211 352.9 30.4693C350.745 30.0915 348.273 29.7136 345.484 29.3358C342.695 28.958 339.843 28.6432 336.927 28.3913C334.012 28.1394 331.476 28.0135 329.321 28.0135C325.011 28.0135 321.271 28.958 318.102 30.8471C315.06 32.6102 312.461 35.066 310.306 38.2144C308.278 41.3628 306.756 45.078 305.742 49.3598C304.728 53.6417 304.221 58.2384 304.221 63.1499C304.221 66.5502 304.538 70.1394 305.172 73.9175C305.932 77.5697 307.073 80.97 308.595 84.1184C310.243 87.2669 312.398 89.8486 315.06 91.8636C317.722 93.8786 321.018 94.8861 324.948 94.8861C330.652 94.8861 334.455 93.5007 336.357 90.7301C338.259 87.9595 339.209 84.1184 339.209 79.2069C339.209 77.066 338.512 75.7436 337.118 75.2399C335.723 74.7361 333.948 74.4843 331.793 74.4843H322.856Z"/>
      <path d="M428.088 127C418.834 127 410.848 125.489 404.129 122.466C397.537 119.57 392.086 115.477 387.776 110.187C383.592 104.772 380.486 98.3493 378.458 90.919C376.557 83.3628 375.606 75.1139 375.606 66.1724C375.606 56.3493 376.493 47.4708 378.268 39.5367C380.043 31.6027 382.958 24.8651 387.015 19.3238C391.198 13.6567 396.649 9.31184 403.368 6.28935C410.087 3.14092 418.39 1.56671 428.278 1.56671C437.913 1.56671 446.026 3.26686 452.618 6.66716C459.21 10.0675 464.534 14.7271 468.591 20.6462C472.647 26.4393 475.563 33.3658 477.338 41.4258C479.113 49.3598 480 57.8606 480 66.928C480 74.8621 478.922 82.4813 476.767 89.7856C474.612 96.964 471.316 103.324 466.879 108.865C462.569 114.406 457.182 118.814 450.716 122.088C444.251 125.363 436.708 127 428.088 127ZM428.088 95.4528C432.018 95.4528 435.124 94.4453 437.406 92.4303C439.814 90.4153 441.652 87.8966 442.92 84.8741C444.188 81.8516 445.012 78.6402 445.392 75.2399C445.772 71.7136 445.963 68.5023 445.963 65.6057C445.963 62.5832 445.836 59.3088 445.582 55.7826C445.329 52.1304 444.568 48.7931 443.3 45.7706C442.159 42.6222 440.385 39.9775 437.976 37.8366C435.694 35.6957 432.462 34.6252 428.278 34.6252C424.475 34.6252 421.306 35.7586 418.771 38.0255C416.362 40.1664 414.46 42.8741 413.066 46.1484C411.672 49.4228 410.657 52.8861 410.024 56.5382C409.516 60.0645 409.263 63.2759 409.263 66.1724C409.263 69.1949 409.516 72.4063 410.024 75.8066C410.531 79.2069 411.418 82.3553 412.686 85.2519C414.08 88.1484 415.982 90.6042 418.39 92.6192C420.926 94.5082 424.158 95.4528 428.088 95.4528Z"/>
    </mask>
    <path d="M5.95077 5.91154C7.59876 5.28185 9.69045 4.77811 12.2258 4.4003C14.888 4.02249 17.6769 3.83358 20.5926 3.83358C23.635 3.70764 26.5507 3.83358 29.3396 4.2114C32.2553 4.5892 34.8541 5.15592 37.1359 5.91154C37.3895 7.67465 37.3895 10.0045 37.1359 12.901C37.0091 15.7976 37.0725 18.0645 37.3261 19.7016C38.467 17.8126 39.6079 15.8606 40.7488 13.8456C42.0165 11.8306 43.4744 9.94153 45.1223 8.17841C46.8971 6.41529 48.9254 4.96701 51.2073 3.83358C53.6159 2.70015 56.5316 2.13343 59.9543 2.13343C63.8841 2.13343 67.7506 2.82609 71.5537 4.2114C75.4835 5.5967 78.9696 7.67466 82.0121 10.4453C85.1813 13.09 87.7167 16.4273 89.6182 20.4573C91.5198 24.3613 92.4705 28.8951 92.4705 34.0585C92.4705 42.1184 90.1887 48.5412 85.625 53.3268C81.1881 58.1124 75.4201 61.3238 68.3211 62.961C71.2367 63.0869 74.2792 63.7796 77.4484 65.039C80.7444 66.1724 83.7869 67.8096 86.5758 69.9505C89.3647 72.0914 91.6465 74.7361 93.4213 77.8846C95.3228 81.033 96.2736 84.6852 96.2736 88.8411C96.2736 95.3898 95.0059 100.931 92.4705 105.465C90.0619 109.998 86.5758 113.651 82.0121 116.421C77.4484 119.192 71.934 121.144 65.4688 122.277C59.1303 123.537 52.0312 124.166 44.1716 124.166C40.3685 124.166 36.8824 124.103 33.7132 123.978C30.6707 123.978 27.6282 123.852 24.5858 123.6C21.6701 123.474 18.691 123.285 15.6486 123.033C12.6061 122.781 9.37353 122.529 5.95077 122.277C5.69723 120.388 5.50708 117.051 5.38031 112.265C5.25354 107.354 5.12677 101.561 5 94.8861C5 88.0855 5 80.7181 5 72.7841C5 64.7241 5 56.7271 5 48.7931C5.12677 40.7331 5.25354 32.988 5.38031 25.5577C5.50708 18.1274 5.69723 11.5787 5.95077 5.91154ZM48.355 49.7376C51.6509 49.7376 54.3131 49.045 56.3414 47.6597C58.3697 46.2744 59.3838 43.6927 59.3838 39.9145C59.3838 37.3958 58.4331 35.6956 56.5315 34.8141C54.7568 33.8066 52.7919 33.3028 50.6368 33.3028C49.3691 33.3028 48.1014 33.5547 46.8337 34.0585C45.6928 34.5622 44.6153 35.1919 43.6011 35.9475C42.587 36.5772 41.763 37.3328 41.1291 38.2144C40.4953 38.97 40.1784 39.7256 40.1784 40.4813V49.5487C40.5587 49.6747 41.1925 49.7376 42.0799 49.7376H48.355ZM42.6504 96.0195C44.2984 96.0195 46.2633 96.0195 48.5451 96.0195C50.8269 96.0195 52.982 95.7676 55.0103 95.2639C57.1654 94.7601 58.9402 93.8786 60.3346 92.6192C61.8558 91.3598 62.6165 89.4708 62.6165 86.952C62.6165 84.937 62.046 83.4258 60.9051 82.4183C59.8909 81.2849 58.5598 80.4663 56.9119 79.9625C55.3906 79.3328 53.7426 78.955 51.9679 78.8291C50.1931 78.7031 48.6085 78.6402 47.214 78.6402H42.0799C40.8122 78.6402 40.1784 79.2069 40.1784 80.3403V95.2639C40.1784 95.6417 40.4953 95.8935 41.1291 96.0195C41.8897 96.0195 42.3968 96.0195 42.6504 96.0195Z" fill="#D30520" shape-rendering="crispEdges"/>
    <path d="M154.46 98.6642C154.841 100.049 155.094 101.687 155.221 103.576C155.475 105.465 155.601 107.417 155.601 109.432C155.601 111.447 155.475 113.399 155.221 115.288C155.094 117.051 154.841 118.625 154.46 120.01C153.32 120.514 151.735 120.955 149.707 121.333C147.805 121.585 145.65 121.837 143.241 122.088C140.833 122.214 138.361 122.277 135.825 122.277C133.417 122.277 131.135 122.277 128.98 122.277H122.895C117.571 122.277 112.944 122.151 109.014 121.9C105.084 121.522 102.358 120.514 100.837 118.877C100.584 117.744 100.394 116.358 100.267 114.721C100.267 113.084 100.267 111.384 100.267 109.621C100.267 107.858 100.33 106.094 100.457 104.331C100.584 102.568 100.71 101.057 100.837 99.7976C101.725 99.042 103.182 98.4753 105.211 98.0975C107.239 97.7196 109.331 97.5307 111.486 97.5307L111.106 28.3913H108.253C107.873 28.3913 107.302 28.3913 106.542 28.3913C105.908 28.3913 105.211 28.3913 104.45 28.3913C103.69 28.2654 102.929 28.2024 102.168 28.2024C101.534 28.0765 101.091 27.9505 100.837 27.8246C100.203 24.928 99.8865 21.5907 99.8865 17.8126C99.8865 13.9085 100.203 10.3823 100.837 7.23388C102.992 6.35232 106.288 5.84857 110.725 5.72263C115.289 5.47076 119.853 5.34483 124.416 5.34483C126.952 5.34483 129.677 5.4078 132.593 5.53373C135.509 5.53373 138.297 5.5967 140.96 5.72263C143.749 5.84857 146.284 6.10044 148.566 6.47826C150.848 6.73014 152.622 7.10795 153.89 7.61169C155.031 14.4123 155.031 20.8351 153.89 26.8801C152.496 26.8801 151.038 27.006 149.517 27.2579C147.995 27.3838 146.537 27.3208 145.143 27.069V98.0975C145.523 98.0975 146.157 98.0975 147.045 98.0975C147.932 98.0975 148.883 98.1604 149.897 98.2864C150.911 98.2864 151.862 98.3493 152.749 98.4753C153.636 98.4753 154.207 98.5382 154.46 98.6642Z" fill="#EBF57C" shape-rendering="crispEdges"/>
    <path d="M261.169 122.277C259.394 122.781 257.049 123.159 254.134 123.411C251.218 123.789 248.112 123.978 244.816 123.978C241.647 124.103 238.478 124.04 235.308 123.789C232.139 123.537 229.414 123.033 227.132 122.277C223.582 117.618 220.35 112.643 217.434 107.354C214.645 102.064 211.919 96.6492 209.257 91.1079C206.722 85.5667 204.25 80.0255 201.841 74.4843C199.433 68.943 196.771 63.6537 193.855 58.6162C193.982 61.3868 194.108 64.2204 194.235 67.1169C194.489 69.8876 194.616 72.6582 194.616 75.4288C194.616 78.3253 194.616 81.9145 194.616 86.1964C194.742 90.4783 194.742 94.8231 194.616 99.2309C194.616 103.639 194.489 107.921 194.235 112.076C193.982 116.232 193.538 119.633 192.904 122.277C191.636 122.655 189.735 122.97 187.2 123.222C184.664 123.6 181.939 123.852 179.023 123.978C176.234 124.103 173.382 124.04 170.466 123.789C167.677 123.537 165.269 123.033 163.24 122.277C162.86 120.514 162.606 118.688 162.48 116.799C162.353 114.91 162.289 113.084 162.289 111.321V12.901C162.289 11.7676 162.353 10.6342 162.48 9.50075C162.733 8.24138 163.113 7.10794 163.621 6.10045C165.522 5.5967 167.867 5.28186 170.656 5.15592C173.572 4.90405 176.551 4.77811 179.593 4.77811C182.636 4.77811 185.615 4.90405 188.531 5.15592C191.573 5.4078 194.235 5.72264 196.517 6.10045C197.404 7.23388 198.672 9.50075 200.32 12.901C202.095 16.1754 204.06 19.9535 206.215 24.2354C208.497 28.5172 210.842 33.051 213.251 37.8366C215.659 42.4963 217.878 46.7781 219.906 50.6822C222.061 54.5862 223.899 57.8606 225.42 60.5052C226.942 63.024 227.892 64.3463 228.273 64.4723V17.057C228.273 15.2938 228.336 13.4678 228.463 11.5787C228.59 9.68966 228.97 7.86357 229.604 6.10045C231.505 5.47077 233.914 5.02999 236.83 4.77811C239.745 4.52624 242.724 4.46327 245.767 4.5892C248.809 4.5892 251.725 4.71514 254.514 4.96701C257.303 5.21889 259.521 5.5967 261.169 6.10045C261.676 7.9895 261.93 10.1934 261.93 12.7121V109.621C261.93 111.762 261.866 113.903 261.74 116.043C261.74 118.058 261.549 120.136 261.169 122.277Z" fill="#2FB7E2" shape-rendering="crispEdges"/>
    <path d="M322.856 74.4843C321.715 70.4543 321.018 65.9835 320.764 61.072C320.638 56.1604 321.335 51.7526 322.856 47.8486H346.815C351.126 47.8486 354.738 48.6042 357.654 50.1154C360.697 51.5007 363.169 53.3898 365.07 55.7826C366.972 58.0495 368.303 60.5682 369.063 63.3388C369.951 66.1094 370.394 68.8171 370.394 71.4618C370.394 78.6402 369.57 85.6297 367.922 92.4303C366.274 99.1049 363.612 105.024 359.936 110.187C356.26 115.225 351.379 119.255 345.294 122.277C339.209 125.426 331.73 127 322.856 127C313.475 127 305.362 125.3 298.516 121.9C291.798 118.373 286.22 113.714 281.783 107.921C277.473 102.127 274.24 95.3898 272.085 87.7076C270.057 80.0255 269.043 71.9655 269.043 63.5277C269.043 53.8306 270.247 45.1409 272.656 37.4588C275.064 29.6507 278.614 23.1019 283.304 17.8126C288.121 12.3973 294.143 8.24138 301.369 5.34483C308.595 2.44828 316.961 1 326.469 1C330.145 1 333.695 1.1889 337.118 1.56671C340.667 1.81859 343.836 2.13343 346.625 2.51125C349.414 2.88905 351.759 3.26686 353.661 3.64468C355.562 3.89655 356.703 4.02248 357.084 4.02248C357.971 8.43028 358.351 13.027 358.225 17.8126C358.098 22.5982 357.654 27.069 356.894 31.2249C356.386 30.973 355.055 30.7211 352.9 30.4693C350.745 30.0915 348.273 29.7136 345.484 29.3358C342.695 28.958 339.843 28.6432 336.927 28.3913C334.012 28.1394 331.476 28.0135 329.321 28.0135C325.011 28.0135 321.271 28.958 318.102 30.8471C315.06 32.6102 312.461 35.066 310.306 38.2144C308.278 41.3628 306.756 45.078 305.742 49.3598C304.728 53.6417 304.221 58.2384 304.221 63.1499C304.221 66.5502 304.538 70.1394 305.172 73.9175C305.932 77.5697 307.073 80.97 308.595 84.1184C310.243 87.2669 312.398 89.8486 315.06 91.8636C317.722 93.8786 321.018 94.8861 324.948 94.8861C330.652 94.8861 334.455 93.5007 336.357 90.7301C338.259 87.9595 339.209 84.1184 339.209 79.2069C339.209 77.066 338.512 75.7436 337.118 75.2399C335.723 74.7361 333.948 74.4843 331.793 74.4843H322.856Z" fill="#09D305" shape-rendering="crispEdges"/>
    <path d="M428.088 127C418.834 127 410.848 125.489 404.129 122.466C397.537 119.57 392.086 115.477 387.776 110.187C383.592 104.772 380.486 98.3493 378.458 90.919C376.557 83.3628 375.606 75.1139 375.606 66.1724C375.606 56.3493 376.493 47.4708 378.268 39.5367C380.043 31.6027 382.958 24.8651 387.015 19.3238C391.198 13.6567 396.649 9.31184 403.368 6.28935C410.087 3.14092 418.39 1.56671 428.278 1.56671C437.913 1.56671 446.026 3.26686 452.618 6.66716C459.21 10.0675 464.534 14.7271 468.591 20.6462C472.647 26.4393 475.563 33.3658 477.338 41.4258C479.113 49.3598 480 57.8606 480 66.928C480 74.8621 478.922 82.4813 476.767 89.7856C474.612 96.964 471.316 103.324 466.879 108.865C462.569 114.406 457.182 118.814 450.716 122.088C444.251 125.363 436.708 127 428.088 127ZM428.088 95.4528C432.018 95.4528 435.124 94.4453 437.406 92.4303C439.814 90.4153 441.652 87.8966 442.92 84.8741C444.188 81.8516 445.012 78.6402 445.392 75.2399C445.772 71.7136 445.963 68.5023 445.963 65.6057C445.963 62.5832 445.836 59.3088 445.582 55.7826C445.329 52.1304 444.568 48.7931 443.3 45.7706C442.159 42.6222 440.385 39.9775 437.976 37.8366C435.694 35.6957 432.462 34.6252 428.278 34.6252C424.475 34.6252 421.306 35.7586 418.771 38.0255C416.362 40.1664 414.46 42.8741 413.066 46.1484C411.672 49.4228 410.657 52.8861 410.024 56.5382C409.516 60.0645 409.263 63.2759 409.263 66.1724C409.263 69.1949 409.516 72.4063 410.024 75.8066C410.531 79.2069 411.418 82.3553 412.686 85.2519C414.08 88.1484 415.982 90.6042 418.39 92.6192C420.926 94.5082 424.158 95.4528 428.088 95.4528Z" fill="#8505D3" shape-rendering="crispEdges"/>
    <path d="M5.95077 5.91154C7.59876 5.28185 9.69045 4.77811 12.2258 4.4003C14.888 4.02249 17.6769 3.83358 20.5926 3.83358C23.635 3.70764 26.5507 3.83358 29.3396 4.2114C32.2553 4.5892 34.8541 5.15592 37.1359 5.91154C37.3895 7.67465 37.3895 10.0045 37.1359 12.901C37.0091 15.7976 37.0725 18.0645 37.3261 19.7016C38.467 17.8126 39.6079 15.8606 40.7488 13.8456C42.0165 11.8306 43.4744 9.94153 45.1223 8.17841C46.8971 6.41529 48.9254 4.96701 51.2073 3.83358C53.6159 2.70015 56.5316 2.13343 59.9543 2.13343C63.8841 2.13343 67.7506 2.82609 71.5537 4.2114C75.4835 5.5967 78.9696 7.67466 82.0121 10.4453C85.1813 13.09 87.7167 16.4273 89.6182 20.4573C91.5198 24.3613 92.4705 28.8951 92.4705 34.0585C92.4705 42.1184 90.1887 48.5412 85.625 53.3268C81.1881 58.1124 75.4201 61.3238 68.3211 62.961C71.2367 63.0869 74.2792 63.7796 77.4484 65.039C80.7444 66.1724 83.7869 67.8096 86.5758 69.9505C89.3647 72.0914 91.6465 74.7361 93.4213 77.8846C95.3228 81.033 96.2736 84.6852 96.2736 88.8411C96.2736 95.3898 95.0059 100.931 92.4705 105.465C90.0619 109.998 86.5758 113.651 82.0121 116.421C77.4484 119.192 71.934 121.144 65.4688 122.277C59.1303 123.537 52.0312 124.166 44.1716 124.166C40.3685 124.166 36.8824 124.103 33.7132 123.978C30.6707 123.978 27.6282 123.852 24.5858 123.6C21.6701 123.474 18.691 123.285 15.6486 123.033C12.6061 122.781 9.37353 122.529 5.95077 122.277C5.69723 120.388 5.50708 117.051 5.38031 112.265C5.25354 107.354 5.12677 101.561 5 94.8861C5 88.0855 5 80.7181 5 72.7841C5 64.7241 5 56.7271 5 48.7931C5.12677 40.7331 5.25354 32.988 5.38031 25.5577C5.50708 18.1274 5.69723 11.5787 5.95077 5.91154ZM48.355 49.7376C51.6509 49.7376 54.3131 49.045 56.3414 47.6597C58.3697 46.2744 59.3838 43.6927 59.3838 39.9145C59.3838 37.3958 58.4331 35.6956 56.5315 34.8141C54.7568 33.8066 52.7919 33.3028 50.6368 33.3028C49.3691 33.3028 48.1014 33.5547 46.8337 34.0585C45.6928 34.5622 44.6153 35.1919 43.6011 35.9475C42.587 36.5772 41.763 37.3328 41.1291 38.2144C40.4953 38.97 40.1784 39.7256 40.1784 40.4813V49.5487C40.5587 49.6747 41.1925 49.7376 42.0799 49.7376H48.355ZM42.6504 96.0195C44.2984 96.0195 46.2633 96.0195 48.5451 96.0195C50.8269 96.0195 52.982 95.7676 55.0103 95.2639C57.1654 94.7601 58.9402 93.8786 60.3346 92.6192C61.8558 91.3598 62.6165 89.4708 62.6165 86.952C62.6165 84.937 62.046 83.4258 60.9051 82.4183C59.8909 81.2849 58.5598 80.4663 56.9119 79.9625C55.3906 79.3328 53.7426 78.955 51.9679 78.8291C50.1931 78.7031 48.6085 78.6402 47.214 78.6402H42.0799C40.8122 78.6402 40.1784 79.2069 40.1784 80.3403V95.2639C40.1784 95.6417 40.4953 95.8935 41.1291 96.0195C41.8897 96.0195 42.3968 96.0195 42.6504 96.0195Z" stroke="black" stroke-opacity="0.1" stroke-width="2" shape-rendering="crispEdges" mask="url(#path-1-outside-1_199_355)"/>
    <path d="M154.46 98.6642C154.841 100.049 155.094 101.687 155.221 103.576C155.475 105.465 155.601 107.417 155.601 109.432C155.601 111.447 155.475 113.399 155.221 115.288C155.094 117.051 154.841 118.625 154.46 120.01C153.32 120.514 151.735 120.955 149.707 121.333C147.805 121.585 145.65 121.837 143.241 122.088C140.833 122.214 138.361 122.277 135.825 122.277C133.417 122.277 131.135 122.277 128.98 122.277H122.895C117.571 122.277 112.944 122.151 109.014 121.9C105.084 121.522 102.358 120.514 100.837 118.877C100.584 117.744 100.394 116.358 100.267 114.721C100.267 113.084 100.267 111.384 100.267 109.621C100.267 107.858 100.33 106.094 100.457 104.331C100.584 102.568 100.71 101.057 100.837 99.7976C101.725 99.042 103.182 98.4753 105.211 98.0975C107.239 97.7196 109.331 97.5307 111.486 97.5307L111.106 28.3913H108.253C107.873 28.3913 107.302 28.3913 106.542 28.3913C105.908 28.3913 105.211 28.3913 104.45 28.3913C103.69 28.2654 102.929 28.2024 102.168 28.2024C101.534 28.0765 101.091 27.9505 100.837 27.8246C100.203 24.928 99.8865 21.5907 99.8865 17.8126C99.8865 13.9085 100.203 10.3823 100.837 7.23388C102.992 6.35232 106.288 5.84857 110.725 5.72263C115.289 5.47076 119.853 5.34483 124.416 5.34483C126.952 5.34483 129.677 5.4078 132.593 5.53373C135.509 5.53373 138.297 5.5967 140.96 5.72263C143.749 5.84857 146.284 6.10044 148.566 6.47826C150.848 6.73014 152.622 7.10795 153.89 7.61169C155.031 14.4123 155.031 20.8351 153.89 26.8801C152.496 26.8801 151.038 27.006 149.517 27.2579C147.995 27.3838 146.537 27.3208 145.143 27.069V98.0975C145.523 98.0975 146.157 98.0975 147.045 98.0975C147.932 98.0975 148.883 98.1604 149.897 98.2864C150.911 98.2864 151.862 98.3493 152.749 98.4753C153.636 98.4753 154.207 98.5382 154.46 98.6642Z" stroke="black" stroke-opacity="0.1" stroke-width="2" shape-rendering="crispEdges" mask="url(#path-1-outside-1_199_355)"/>
    <path d="M261.169 122.277C259.394 122.781 257.049 123.159 254.134 123.411C251.218 123.789 248.112 123.978 244.816 123.978C241.647 124.103 238.478 124.04 235.308 123.789C232.139 123.537 229.414 123.033 227.132 122.277C223.582 117.618 220.35 112.643 217.434 107.354C214.645 102.064 211.919 96.6492 209.257 91.1079C206.722 85.5667 204.25 80.0255 201.841 74.4843C199.433 68.943 196.771 63.6537 193.855 58.6162C193.982 61.3868 194.108 64.2204 194.235 67.1169C194.489 69.8876 194.616 72.6582 194.616 75.4288C194.616 78.3253 194.616 81.9145 194.616 86.1964C194.742 90.4783 194.742 94.8231 194.616 99.2309C194.616 103.639 194.489 107.921 194.235 112.076C193.982 116.232 193.538 119.633 192.904 122.277C191.636 122.655 189.735 122.97 187.2 123.222C184.664 123.6 181.939 123.852 179.023 123.978C176.234 124.103 173.382 124.04 170.466 123.789C167.677 123.537 165.269 123.033 163.24 122.277C162.86 120.514 162.606 118.688 162.48 116.799C162.353 114.91 162.289 113.084 162.289 111.321V12.901C162.289 11.7676 162.353 10.6342 162.48 9.50075C162.733 8.24138 163.113 7.10794 163.621 6.10045C165.522 5.5967 167.867 5.28186 170.656 5.15592C173.572 4.90405 176.551 4.77811 179.593 4.77811C182.636 4.77811 185.615 4.90405 188.531 5.15592C191.573 5.4078 194.235 5.72264 196.517 6.10045C197.404 7.23388 198.672 9.50075 200.32 12.901C202.095 16.1754 204.06 19.9535 206.215 24.2354C208.497 28.5172 210.842 33.051 213.251 37.8366C215.659 42.4963 217.878 46.7781 219.906 50.6822C222.061 54.5862 223.899 57.8606 225.42 60.5052C226.942 63.024 227.892 64.3463 228.273 64.4723V17.057C228.273 15.2938 228.336 13.4678 228.463 11.5787C228.59 9.68966 228.97 7.86357 229.604 6.10045C231.505 5.47077 233.914 5.02999 236.83 4.77811C239.745 4.52624 242.724 4.46327 245.767 4.5892C248.809 4.5892 251.725 4.71514 254.514 4.96701C257.303 5.21889 259.521 5.5967 261.169 6.10045C261.676 7.9895 261.93 10.1934 261.93 12.7121V109.621C261.93 111.762 261.866 113.903 261.74 116.043C261.74 118.058 261.549 120.136 261.169 122.277Z" stroke="black" stroke-opacity="0.1" stroke-width="2" shape-rendering="crispEdges" mask="url(#path-1-outside-1_199_355)"/>
    <path d="M322.856 74.4843C321.715 70.4543 321.018 65.9835 320.764 61.072C320.638 56.1604 321.335 51.7526 322.856 47.8486H346.815C351.126 47.8486 354.738 48.6042 357.654 50.1154C360.697 51.5007 363.169 53.3898 365.07 55.7826C366.972 58.0495 368.303 60.5682 369.063 63.3388C369.951 66.1094 370.394 68.8171 370.394 71.4618C370.394 78.6402 369.57 85.6297 367.922 92.4303C366.274 99.1049 363.612 105.024 359.936 110.187C356.26 115.225 351.379 119.255 345.294 122.277C339.209 125.426 331.73 127 322.856 127C313.475 127 305.362 125.3 298.516 121.9C291.798 118.373 286.22 113.714 281.783 107.921C277.473 102.127 274.24 95.3898 272.085 87.7076C270.057 80.0255 269.043 71.9655 269.043 63.5277C269.043 53.8306 270.247 45.1409 272.656 37.4588C275.064 29.6507 278.614 23.1019 283.304 17.8126C288.121 12.3973 294.143 8.24138 301.369 5.34483C308.595 2.44828 316.961 1 326.469 1C330.145 1 333.695 1.1889 337.118 1.56671C340.667 1.81859 343.836 2.13343 346.625 2.51125C349.414 2.88905 351.759 3.26686 353.661 3.64468C355.562 3.89655 356.703 4.02248 357.084 4.02248C357.971 8.43028 358.351 13.027 358.225 17.8126C358.098 22.5982 357.654 27.069 356.894 31.2249C356.386 30.973 355.055 30.7211 352.9 30.4693C350.745 30.0915 348.273 29.7136 345.484 29.3358C342.695 28.958 339.843 28.6432 336.927 28.3913C334.012 28.1394 331.476 28.0135 329.321 28.0135C325.011 28.0135 321.271 28.958 318.102 30.8471C315.06 32.6102 312.461 35.066 310.306 38.2144C308.278 41.3628 306.756 45.078 305.742 49.3598C304.728 53.6417 304.221 58.2384 304.221 63.1499C304.221 66.5502 304.538 70.1394 305.172 73.9175C305.932 77.5697 307.073 80.97 308.595 84.1184C310.243 87.2669 312.398 89.8486 315.06 91.8636C317.722 93.8786 321.018 94.8861 324.948 94.8861C330.652 94.8861 334.455 93.5007 336.357 90.7301C338.259 87.9595 339.209 84.1184 339.209 79.2069C339.209 77.066 338.512 75.7436 337.118 75.2399C335.723 74.7361 333.948 74.4843 331.793 74.4843H322.856Z" stroke="black" stroke-opacity="0.1" stroke-width="2" shape-rendering="crispEdges" mask="url(#path-1-outside-1_199_355)"/>
    <path d="M428.088 127C418.834 127 410.848 125.489 404.129 122.466C397.537 119.57 392.086 115.477 387.776 110.187C383.592 104.772 380.486 98.3493 378.458 90.919C376.557 83.3628 375.606 75.1139 375.606 66.1724C375.606 56.3493 376.493 47.4708 378.268 39.5367C380.043 31.6027 382.958 24.8651 387.015 19.3238C391.198 13.6567 396.649 9.31184 403.368 6.28935C410.087 3.14092 418.39 1.56671 428.278 1.56671C437.913 1.56671 446.026 3.26686 452.618 6.66716C459.21 10.0675 464.534 14.7271 468.591 20.6462C472.647 26.4393 475.563 33.3658 477.338 41.4258C479.113 49.3598 480 57.8606 480 66.928C480 74.8621 478.922 82.4813 476.767 89.7856C474.612 96.964 471.316 103.324 466.879 108.865C462.569 114.406 457.182 118.814 450.716 122.088C444.251 125.363 436.708 127 428.088 127ZM428.088 95.4528C432.018 95.4528 435.124 94.4453 437.406 92.4303C439.814 90.4153 441.652 87.8966 442.92 84.8741C444.188 81.8516 445.012 78.6402 445.392 75.2399C445.772 71.7136 445.963 68.5023 445.963 65.6057C445.963 62.5832 445.836 59.3088 445.582 55.7826C445.329 52.1304 444.568 48.7931 443.3 45.7706C442.159 42.6222 440.385 39.9775 437.976 37.8366C435.694 35.6957 432.462 34.6252 428.278 34.6252C424.475 34.6252 421.306 35.7586 418.771 38.0255C416.362 40.1664 414.46 42.8741 413.066 46.1484C411.672 49.4228 410.657 52.8861 410.024 56.5382C409.516 60.0645 409.263 63.2759 409.263 66.1724C409.263 69.1949 409.516 72.4063 410.024 75.8066C410.531 79.2069 411.418 82.3553 412.686 85.2519C414.08 88.1484 415.982 90.6042 418.39 92.6192C420.926 94.5082 424.158 95.4528 428.088 95.4528Z" stroke="black" stroke-opacity="0.1" stroke-width="2" shape-rendering="crispEdges" mask="url(#path-1-outside-1_199_355)"/>
  </g>
  <defs>
    <filter id="filter0_d_199_355" x="0" y="0" width="485" height="136" filterUnits="userSpaceOnUse" color-interpolation-filters="sRGB">
      <feFlood flood-opacity="0" result="BackgroundImageFix"/>
      <feColorMatrix in="SourceAlpha" type="matrix" values="0 0 0 0 0 0 0 0 0 0 0 0 0 0 0 0 0 0 127 0" result="hardAlpha"/>
      <feOffset dy="4"/>
      <feGaussianBlur stdDeviation="2"/>
      <feComposite in2="hardAlpha" operator="out"/>
      <feColorMatrix type="matrix" values="0 0 0 0 0 0 0 0 0 0 0 0 0 0 0 0 0 0 0.25 0"/>
      <feBlend mode="normal" in2="BackgroundImageFix" result="effect1_dropShadow_199_355"/>
      <feBlend mode="normal" in="SourceGraphic" in2="effect1_dropShadow_199_355" result="shape"/>
    </filter>
  </defs>
</svg>